<svg width="1620" height="80" viewBox="0 0 1620 80" fill="none" xmlns="http://www.w3.org/2000/svg">
<mask id="path-1-inside-1_3893_144480" fill="white">
<path d="M0 0H1620V80H0V0Z"/>
</mask>
<path d="M0 0H1620V80H0V0Z" fill="white"/>
<path d="M1620 80V79H0V80V81H1620V80Z" fill="#E8EDF2" mask="url(#path-1-inside-1_3893_144480)"/>
<g clip-path="url(#clip0_3893_144480)">
<mask id="path-3-inside-2_3893_144480" fill="white">
<path d="M0 0H1620V80H0V0Z"/>
</mask>
<path d="M0 0H1620V80H0V0Z" fill="url(#paint0_linear_3893_144480)"/>
<path d="M0 0H1620V80H0V0Z" fill="url(#paint1_radial_3893_144480)" fill-opacity="0.2"/>
<g style="mix-blend-mode:color-dodge" filter="url(#filter0_f_3893_144480)">
<ellipse cx="1148.2" cy="49.6189" rx="29.4231" ry="206.96" transform="rotate(50.3891 1148.2 49.6189)" fill="url(#paint2_linear_3893_144480)"/>
</g>
<g style="mix-blend-mode:color-dodge" filter="url(#filter1_f_3893_144480)">
<ellipse cx="384.148" cy="40.1488" rx="29.4231" ry="206.96" transform="rotate(-135 384.148 40.1488)" fill="url(#paint3_linear_3893_144480)"/>
</g>
<g style="mix-blend-mode:multiply" filter="url(#filter2_f_3893_144480)">
<ellipse cx="942.148" cy="14.1488" rx="29.4231" ry="206.96" transform="rotate(-135 942.148 14.1488)" fill="url(#paint4_linear_3893_144480)"/>
</g>
<g style="mix-blend-mode:color-dodge" filter="url(#filter3_f_3893_144480)">
<path d="M1695.66 -70.8237L1709.98 -51.746L1451.64 204.368L1432.53 168.681L1695.66 -70.8237Z" fill="url(#paint5_linear_3893_144480)"/>
</g>
<g style="mix-blend-mode:color-dodge" opacity="0.3" filter="url(#filter4_f_3893_144480)">
<path d="M1658.06 -143.743L1678.72 -118.057L1421.98 139.73L1392.44 93.1653L1658.06 -143.743Z" fill="url(#paint6_linear_3893_144480)"/>
</g>
<g style="mix-blend-mode:color-dodge" opacity="0.86" filter="url(#filter5_f_3893_144480)">
<path d="M1686.76 -134.253L1712.97 -102.78L1457.64 156.473L1418.96 100.38L1686.76 -134.253Z" fill="url(#paint7_linear_3893_144480)"/>
</g>
<g style="mix-blend-mode:color-dodge" opacity="0.31" filter="url(#filter6_f_3893_144480)">
<path d="M1704.55 130.743C1687.4 139.66 1615.09 45.907 1588.01 -0.89511C1560.94 -47.6972 1523.61 -143.505 1540.76 -152.422C1557.91 -161.338 1623.06 -79.9869 1650.13 -33.1848C1677.2 13.6173 1721.7 121.826 1704.55 130.743Z" fill="#50A0FF"/>
</g>
<g style="mix-blend-mode:color-dodge" filter="url(#filter7_f_3893_144480)">
<path d="M1604.95 -1.07422L1343.34 251.052" stroke="url(#paint8_linear_3893_144480)"/>
</g>
<g style="mix-blend-mode:plus-lighter" filter="url(#filter8_f_3893_144480)">
<path d="M1613.71 26.2812L1350.51 276.753" stroke="url(#paint9_linear_3893_144480)"/>
</g>
<g style="mix-blend-mode:color-dodge" filter="url(#filter9_f_3893_144480)">
<path d="M1609.85 -36.6445L1470.35 91.3991" stroke="url(#paint10_linear_3893_144480)" stroke-width="2"/>
</g>
<g style="mix-blend-mode:color-dodge" filter="url(#filter10_f_3893_144480)">
<path d="M1229.01 -79L1106.88 65.7038" stroke="url(#paint11_linear_3893_144480)" stroke-width="2"/>
</g>
</g>
<path d="M1620 80V79H0V80V81H1620V80Z" fill="#E8EDF2" mask="url(#path-3-inside-2_3893_144480)"/>
<path d="M41.125 49V31.5391H44.8047V39.2383H45.0391L51.3203 31.5391H55.7383L49.2695 39.3555L55.8203 49H51.4023L46.6211 41.8281L44.8047 44.043V49H41.125ZM61.8438 49.2578C60.5 49.2578 59.3398 48.9844 58.3633 48.4375C57.3867 47.8906 56.6367 47.1133 56.1133 46.1055C55.5977 45.0898 55.3398 43.8906 55.3398 42.5078C55.3398 41.1641 55.5977 39.9844 56.1133 38.9688C56.6367 37.9531 57.3711 37.1602 58.3164 36.5898C59.2695 36.0195 60.3867 35.7344 61.668 35.7344C62.5352 35.7344 63.3438 35.875 64.0938 36.1562C64.8438 36.4297 65.5 36.8438 66.0625 37.3984C66.625 37.9453 67.0625 38.6367 67.375 39.4727C67.6875 40.3008 67.8438 41.2734 67.8438 42.3906V43.375H56.7812V41.1367H66.0859L64.3984 41.7227C64.3984 41.0586 64.2969 40.4805 64.0938 39.9883C63.8906 39.4961 63.5859 39.1172 63.1797 38.8516C62.7812 38.5781 62.2852 38.4414 61.6914 38.4414C61.0977 38.4414 60.5938 38.5781 60.1797 38.8516C59.7734 39.125 59.4609 39.4961 59.2422 39.9648C59.0234 40.4336 58.9141 40.9727 58.9141 41.582V43.1641C58.9141 43.875 59.0391 44.4844 59.2891 44.9922C59.5391 45.4922 59.8867 45.8789 60.332 46.1523C60.7852 46.418 61.3047 46.5508 61.8906 46.5508C62.2969 46.5508 62.6641 46.4922 62.9922 46.375C63.3203 46.2578 63.6016 46.0859 63.8359 45.8594C64.0781 45.6328 64.2578 45.3594 64.375 45.0391L67.7266 45.2617C67.5625 46.0664 67.2188 46.7695 66.6953 47.3711C66.1797 47.9648 65.5117 48.4297 64.6914 48.7656C63.8711 49.0938 62.9219 49.2578 61.8438 49.2578ZM57.168 34.4688L60.5898 31.8203H62.5586L66.0156 34.4688H63.4023L61.5977 33.0273L59.7812 34.4688H57.168ZM65.1133 32.957L67.1172 29.7695H69.9297L67.1758 32.957H65.1133ZM76.3516 35.8984V38.6406H68.4648V35.8984H76.3516ZM70.2578 32.7812H73.8789V44.9688C73.8789 45.4062 73.9766 45.7305 74.1719 45.9414C74.3672 46.1445 74.6797 46.2461 75.1094 46.2461C75.25 46.2461 75.4062 46.2344 75.5781 46.2109C75.75 46.1875 75.8984 46.1602 76.0234 46.1289L76.5977 48.8477C76.1992 48.9648 75.8125 49.0508 75.4375 49.1055C75.0703 49.1602 74.707 49.1875 74.3477 49.1875C73.043 49.1875 72.0352 48.8633 71.3242 48.2148C70.6133 47.5586 70.2578 46.6367 70.2578 45.4492V32.7812ZM86.3359 41.4297V49H82.7148V35.8984H86.2773V38.2305H86.4062C86.7031 37.457 87.1758 36.8477 87.8242 36.4023C88.4727 35.957 89.2852 35.7344 90.2617 35.7344C91.168 35.7344 91.957 35.9336 92.6289 36.332C93.3086 36.7305 93.8359 37.2969 94.2109 38.0312C94.5859 38.7656 94.7734 39.6445 94.7734 40.668V49H91.1523V41.3125C91.1523 40.5156 90.9453 39.8906 90.5312 39.4375C90.1172 38.9766 89.5469 38.7461 88.8203 38.7461C88.3359 38.7461 87.9062 38.8555 87.5312 39.0742C87.1562 39.2852 86.8633 39.5898 86.6523 39.9883C86.4414 40.3867 86.3359 40.8672 86.3359 41.4297ZM102.812 49.2578C101.492 49.2578 100.348 48.9766 99.3789 48.4141C98.418 47.8438 97.6758 47.0547 97.1523 46.0469C96.6367 45.0312 96.3789 43.8516 96.3789 42.5078C96.3789 41.1484 96.6367 39.9648 97.1523 38.957C97.6758 37.9414 98.418 37.1523 99.3789 36.5898C100.348 36.0195 101.492 35.7344 102.812 35.7344C104.141 35.7344 105.285 36.0195 106.246 36.5898C107.215 37.1523 107.957 37.9414 108.473 38.957C108.996 39.9648 109.258 41.1484 109.258 42.5078C109.258 43.8516 108.996 45.0312 108.473 46.0469C107.957 47.0547 107.215 47.8438 106.246 48.4141C105.285 48.9766 104.141 49.2578 102.812 49.2578ZM102.836 46.4219C103.438 46.4219 103.941 46.2539 104.348 45.918C104.754 45.5742 105.059 45.1055 105.262 44.5117C105.473 43.918 105.578 43.2422 105.578 42.4844C105.578 41.7188 105.473 41.043 105.262 40.457C105.059 39.8711 104.754 39.4102 104.348 39.0742C103.941 38.7383 103.438 38.5703 102.836 38.5703C102.227 38.5703 101.715 38.7383 101.301 39.0742C100.895 39.4102 100.586 39.8711 100.375 40.457C100.172 41.043 100.07 41.7188 100.07 42.4844C100.07 43.2422 100.172 43.918 100.375 44.5117C100.586 45.1055 100.895 45.5742 101.301 45.918C101.715 46.2539 102.227 46.4219 102.836 46.4219ZM98.3828 34.4688L101.805 31.8203H103.773L107.23 34.4688H104.617L102.812 33.0273L100.996 34.4688H98.3828ZM106.328 32.957L108.332 29.7695H111.145L108.391 32.957H106.328ZM110.863 49V35.8984H114.484V49H110.863ZM112.668 34.2227C112.129 34.2227 111.668 34.043 111.285 33.6836C110.902 33.3242 110.711 32.8906 110.711 32.3828C110.711 31.875 110.902 31.4453 111.285 31.0938C111.668 30.7344 112.129 30.5547 112.668 30.5547C113.215 30.5547 113.68 30.7344 114.062 31.0938C114.445 31.4453 114.637 31.875 114.637 32.3828C114.637 32.8906 114.445 33.3242 114.062 33.6836C113.68 34.043 113.215 34.2227 112.668 34.2227ZM125.031 41.4297V49H121.41V35.8984H124.973V38.2305H125.102C125.398 37.457 125.871 36.8477 126.52 36.4023C127.168 35.957 127.98 35.7344 128.957 35.7344C129.863 35.7344 130.652 35.9336 131.324 36.332C132.004 36.7305 132.531 37.2969 132.906 38.0312C133.281 38.7656 133.469 39.6445 133.469 40.668V49H129.848V41.3125C129.848 40.5156 129.641 39.8906 129.227 39.4375C128.812 38.9766 128.242 38.7461 127.516 38.7461C127.031 38.7461 126.602 38.8555 126.227 39.0742C125.852 39.2852 125.559 39.5898 125.348 39.9883C125.137 40.3867 125.031 40.8672 125.031 41.4297ZM141.578 49.2578C140.234 49.2578 139.074 48.9844 138.098 48.4375C137.121 47.8906 136.371 47.1133 135.848 46.1055C135.332 45.0898 135.074 43.8906 135.074 42.5078C135.074 41.1641 135.332 39.9844 135.848 38.9688C136.371 37.9531 137.105 37.1602 138.051 36.5898C139.004 36.0195 140.121 35.7344 141.402 35.7344C142.27 35.7344 143.078 35.875 143.828 36.1562C144.578 36.4297 145.234 36.8438 145.797 37.3984C146.359 37.9453 146.797 38.6367 147.109 39.4727C147.422 40.3008 147.578 41.2734 147.578 42.3906V43.375H136.516V41.1367H145.82L144.133 41.7227C144.133 41.0586 144.031 40.4805 143.828 39.9883C143.625 39.4961 143.32 39.1172 142.914 38.8516C142.516 38.5781 142.02 38.4414 141.426 38.4414C140.832 38.4414 140.328 38.5781 139.914 38.8516C139.508 39.125 139.195 39.4961 138.977 39.9648C138.758 40.4336 138.648 40.9727 138.648 41.582V43.1641C138.648 43.875 138.773 44.4844 139.023 44.9922C139.273 45.4922 139.621 45.8789 140.066 46.1523C140.52 46.418 141.039 46.5508 141.625 46.5508C142.031 46.5508 142.398 46.4922 142.727 46.375C143.055 46.2578 143.336 46.0859 143.57 45.8594C143.812 45.6328 143.992 45.3594 144.109 45.0391L147.461 45.2617C147.297 46.0664 146.953 46.7695 146.43 47.3711C145.914 47.9648 145.246 48.4297 144.426 48.7656C143.605 49.0938 142.656 49.2578 141.578 49.2578ZM142.305 31.8672L145.762 34.5156H143.137L141.344 33.0742L139.516 34.5156H136.914L140.336 31.8672H142.305ZM135.801 29.8281L137.805 33.0156H135.789L133.023 29.8281H135.801ZM152.758 41.4297V49H149.137V35.8984H152.699V38.2305H152.828C153.125 37.457 153.598 36.8477 154.246 36.4023C154.895 35.957 155.707 35.7344 156.684 35.7344C157.59 35.7344 158.379 35.9336 159.051 36.332C159.73 36.7305 160.258 37.2969 160.633 38.0312C161.008 38.7656 161.195 39.6445 161.195 40.668V49H157.574V41.3125C157.574 40.5156 157.367 39.8906 156.953 39.4375C156.539 38.9766 155.969 38.7461 155.242 38.7461C154.758 38.7461 154.328 38.8555 153.953 39.0742C153.578 39.2852 153.285 39.5898 153.074 39.9883C152.863 40.3867 152.758 40.8672 152.758 41.4297ZM175.07 35.8984V38.6406H167.184V35.8984H175.07ZM168.977 32.7812H172.598V44.9688C172.598 45.4062 172.695 45.7305 172.891 45.9414C173.086 46.1445 173.398 46.2461 173.828 46.2461C173.969 46.2461 174.125 46.2344 174.297 46.2109C174.469 46.1875 174.617 46.1602 174.742 46.1289L175.316 48.8477C174.918 48.9648 174.531 49.0508 174.156 49.1055C173.789 49.1602 173.426 49.1875 173.066 49.1875C171.762 49.1875 170.754 48.8633 170.043 48.2148C169.332 47.5586 168.977 46.6367 168.977 45.4492V32.7812ZM180.379 49.2461C179.551 49.2461 178.805 49.1016 178.141 48.8125C177.484 48.5156 176.969 48.0781 176.594 47.5C176.219 46.9219 176.031 46.2031 176.031 45.3438C176.031 44.6094 176.164 44 176.43 43.5156C176.695 43.0234 177.059 42.625 177.52 42.3203C177.98 42.0156 178.504 41.7852 179.09 41.6289C179.676 41.4727 180.297 41.3633 180.953 41.3008C181.711 41.2305 182.32 41.1602 182.781 41.0898C183.242 41.0195 183.578 40.9141 183.789 40.7734C184.008 40.625 184.117 40.4141 184.117 40.1406V40.082C184.117 39.543 183.945 39.125 183.602 38.8281C183.266 38.5312 182.789 38.3828 182.172 38.3828C181.523 38.3828 181.004 38.5273 180.613 38.8164C180.23 39.0977 179.977 39.457 179.852 39.8945L176.488 39.625C176.66 38.8281 176.996 38.1406 177.496 37.5625C177.996 36.9766 178.641 36.5273 179.43 36.2148C180.227 35.8945 181.148 35.7344 182.195 35.7344C182.922 35.7344 183.617 35.8203 184.281 35.9922C184.945 36.1641 185.535 36.4297 186.051 36.7891C186.574 37.1406 186.988 37.5977 187.293 38.1602C187.598 38.7227 187.75 39.3906 187.75 40.1641V49H184.293V47.1719H184.199C183.988 47.5859 183.707 47.9492 183.355 48.2617C183.004 48.5664 182.582 48.8086 182.09 48.9883C181.598 49.1602 181.027 49.2461 180.379 49.2461ZM181.422 46.7383C181.953 46.7383 182.422 46.6328 182.828 46.4219C183.242 46.2031 183.562 45.9141 183.789 45.5547C184.023 45.1875 184.141 44.7773 184.141 44.3242V42.9297C184.031 43 183.875 43.0664 183.672 43.1289C183.477 43.1914 183.258 43.2461 183.016 43.293C182.773 43.3398 182.531 43.3828 182.289 43.4219C182.047 43.4531 181.828 43.4844 181.633 43.5156C181.203 43.5781 180.828 43.6797 180.508 43.8203C180.188 43.9531 179.938 44.1367 179.758 44.3711C179.586 44.5977 179.5 44.8828 179.5 45.2266C179.5 45.7188 179.68 46.0938 180.039 46.3516C180.398 46.6094 180.859 46.7383 181.422 46.7383ZM183.637 34.0352H180.953L180.766 32.5C181.367 32.4766 181.797 32.3984 182.055 32.2656C182.312 32.1328 182.438 31.9531 182.43 31.7266C182.438 31.4219 182.273 31.2148 181.938 31.1055C181.609 30.9961 181.203 30.9414 180.719 30.9414L180.824 29.3008C182.34 29.3008 183.492 29.5039 184.281 29.9102C185.07 30.3164 185.465 30.8828 185.465 31.6094C185.465 32.125 185.277 32.5156 184.902 32.7812C184.527 33.0469 184.105 33.2188 183.637 33.2969V34.0352ZM193.492 41.4297V49H189.871V35.8984H193.434V38.2305H193.562C193.859 37.457 194.332 36.8477 194.98 36.4023C195.629 35.957 196.441 35.7344 197.418 35.7344C198.324 35.7344 199.113 35.9336 199.785 36.332C200.465 36.7305 200.992 37.2969 201.367 38.0312C201.742 38.7656 201.93 39.6445 201.93 40.668V49H198.309V41.3125C198.309 40.5156 198.102 39.8906 197.688 39.4375C197.273 38.9766 196.703 38.7461 195.977 38.7461C195.492 38.7461 195.062 38.8555 194.688 39.0742C194.312 39.2852 194.02 39.5898 193.809 39.9883C193.598 40.3867 193.492 40.8672 193.492 41.4297ZM209.934 54.1797C208.168 54.1797 206.785 53.8281 205.785 53.125C204.785 52.4297 204.176 51.5625 203.957 50.5234L207.309 50.0781C207.41 50.3438 207.57 50.5898 207.789 50.8164C208.008 51.043 208.301 51.2227 208.668 51.3555C209.035 51.4961 209.484 51.5664 210.016 51.5664C210.805 51.5664 211.457 51.375 211.973 50.9922C212.488 50.6172 212.746 49.9805 212.746 49.082V46.6797H212.594C212.438 47.0391 212.199 47.3828 211.879 47.7109C211.559 48.0391 211.148 48.3047 210.648 48.5078C210.148 48.7109 209.551 48.8125 208.855 48.8125C207.871 48.8125 206.977 48.5859 206.172 48.1328C205.375 47.6719 204.734 46.9688 204.25 46.0234C203.773 45.0781 203.535 43.8828 203.535 42.4375C203.535 40.9453 203.777 39.7031 204.262 38.7109C204.754 37.7188 205.402 36.9766 206.207 36.4844C207.012 35.9844 207.895 35.7344 208.855 35.7344C209.59 35.7344 210.203 35.8594 210.695 36.1094C211.195 36.3516 211.602 36.6562 211.914 37.0234C212.227 37.3906 212.461 37.7539 212.617 38.1133H212.758V35.8984H216.332V49.1406C216.332 50.25 216.059 51.1797 215.512 51.9297C214.965 52.6797 214.211 53.2422 213.25 53.6172C212.289 53.9922 211.184 54.1797 209.934 54.1797ZM210.004 46.082C210.879 46.082 211.555 45.7578 212.031 45.1094C212.516 44.4609 212.758 43.5625 212.758 42.4141C212.758 41.6484 212.648 40.9844 212.43 40.4219C212.219 39.8516 211.91 39.4102 211.504 39.0977C211.098 38.7773 210.598 38.6172 210.004 38.6172C209.41 38.6172 208.906 38.7812 208.492 39.1094C208.086 39.4297 207.777 39.875 207.566 40.4453C207.355 41.0156 207.25 41.6719 207.25 42.4141C207.25 43.1641 207.355 43.8164 207.566 44.3711C207.777 44.918 208.086 45.3398 208.492 45.6367C208.906 45.9336 209.41 46.082 210.004 46.082Z" fill="#000A2C"/>
<defs>
<filter id="filter0_f_3893_144480" x="960.644" y="-111.289" width="375.111" height="321.812" filterUnits="userSpaceOnUse" color-interpolation-filters="sRGB">
<feFlood flood-opacity="0" result="BackgroundImageFix"/>
<feBlend mode="normal" in="SourceGraphic" in2="BackgroundImageFix" result="shape"/>
<feGaussianBlur stdDeviation="13.5" result="effect1_foregroundBlur_3893_144480"/>
</filter>
<filter id="filter1_f_3893_144480" x="209.315" y="-134.684" width="349.666" height="349.664" filterUnits="userSpaceOnUse" color-interpolation-filters="sRGB">
<feFlood flood-opacity="0" result="BackgroundImageFix"/>
<feBlend mode="normal" in="SourceGraphic" in2="BackgroundImageFix" result="shape"/>
<feGaussianBlur stdDeviation="13.5" result="effect1_foregroundBlur_3893_144480"/>
</filter>
<filter id="filter2_f_3893_144480" x="767.315" y="-160.684" width="349.666" height="349.664" filterUnits="userSpaceOnUse" color-interpolation-filters="sRGB">
<feFlood flood-opacity="0" result="BackgroundImageFix"/>
<feBlend mode="normal" in="SourceGraphic" in2="BackgroundImageFix" result="shape"/>
<feGaussianBlur stdDeviation="13.5" result="effect1_foregroundBlur_3893_144480"/>
</filter>
<filter id="filter3_f_3893_144480" x="1420.53" y="-82.8242" width="301.452" height="299.191" filterUnits="userSpaceOnUse" color-interpolation-filters="sRGB">
<feFlood flood-opacity="0" result="BackgroundImageFix"/>
<feBlend mode="normal" in="SourceGraphic" in2="BackgroundImageFix" result="shape"/>
<feGaussianBlur stdDeviation="6" result="effect1_foregroundBlur_3893_144480"/>
</filter>
<filter id="filter4_f_3893_144480" x="1386.44" y="-149.742" width="298.281" height="295.473" filterUnits="userSpaceOnUse" color-interpolation-filters="sRGB">
<feFlood flood-opacity="0" result="BackgroundImageFix"/>
<feBlend mode="normal" in="SourceGraphic" in2="BackgroundImageFix" result="shape"/>
<feGaussianBlur stdDeviation="3" result="effect1_foregroundBlur_3893_144480"/>
</filter>
<filter id="filter5_f_3893_144480" x="1407.96" y="-145.254" width="316.015" height="312.727" filterUnits="userSpaceOnUse" color-interpolation-filters="sRGB">
<feFlood flood-opacity="0" result="BackgroundImageFix"/>
<feBlend mode="normal" in="SourceGraphic" in2="BackgroundImageFix" result="shape"/>
<feGaussianBlur stdDeviation="5.5" result="effect1_foregroundBlur_3893_144480"/>
</filter>
<filter id="filter6_f_3893_144480" x="1440.42" y="-249.098" width="363.963" height="476.434" filterUnits="userSpaceOnUse" color-interpolation-filters="sRGB">
<feFlood flood-opacity="0" result="BackgroundImageFix"/>
<feBlend mode="normal" in="SourceGraphic" in2="BackgroundImageFix" result="shape"/>
<feGaussianBlur stdDeviation="48" result="effect1_foregroundBlur_3893_144480"/>
</filter>
<filter id="filter7_f_3893_144480" x="1334.97" y="-9.44141" width="278.355" height="268.859" filterUnits="userSpaceOnUse" color-interpolation-filters="sRGB">
<feFlood flood-opacity="0" result="BackgroundImageFix"/>
<feBlend mode="normal" in="SourceGraphic" in2="BackgroundImageFix" result="shape"/>
<feGaussianBlur stdDeviation="4" result="effect1_foregroundBlur_3893_144480"/>
</filter>
<filter id="filter8_f_3893_144480" x="1343.14" y="18.9141" width="277.936" height="265.207" filterUnits="userSpaceOnUse" color-interpolation-filters="sRGB">
<feFlood flood-opacity="0" result="BackgroundImageFix"/>
<feBlend mode="normal" in="SourceGraphic" in2="BackgroundImageFix" result="shape"/>
<feGaussianBlur stdDeviation="3.5" result="effect1_foregroundBlur_3893_144480"/>
</filter>
<filter id="filter9_f_3893_144480" x="1462.63" y="-44.3984" width="154.939" height="143.551" filterUnits="userSpaceOnUse" color-interpolation-filters="sRGB">
<feFlood flood-opacity="0" result="BackgroundImageFix"/>
<feBlend mode="normal" in="SourceGraphic" in2="BackgroundImageFix" result="shape"/>
<feGaussianBlur stdDeviation="3.5" result="effect1_foregroundBlur_3893_144480"/>
</filter>
<filter id="filter10_f_3893_144480" x="1099.07" y="-86.6562" width="137.751" height="160.016" filterUnits="userSpaceOnUse" color-interpolation-filters="sRGB">
<feFlood flood-opacity="0" result="BackgroundImageFix"/>
<feBlend mode="normal" in="SourceGraphic" in2="BackgroundImageFix" result="shape"/>
<feGaussianBlur stdDeviation="3.5" result="effect1_foregroundBlur_3893_144480"/>
</filter>
<linearGradient id="paint0_linear_3893_144480" x1="0" y1="80" x2="393.421" y2="-655.479" gradientUnits="userSpaceOnUse">
<stop offset="0.0618185" stop-color="white"/>
<stop offset="0.288415" stop-color="#98CFFE"/>
<stop offset="0.675705" stop-color="#B3DCFE"/>
<stop offset="1" stop-color="#F5FBFF"/>
</linearGradient>
<radialGradient id="paint1_radial_3893_144480" cx="0" cy="0" r="1" gradientTransform="matrix(461.265 -54.0409 247.849 47.5429 1531.47 64.9741)" gradientUnits="userSpaceOnUse">
<stop stop-color="#98CFFE"/>
<stop offset="1" stop-color="white" stop-opacity="0"/>
</radialGradient>
<linearGradient id="paint2_linear_3893_144480" x1="1165.38" y1="-131.911" x2="1163.47" y2="96.0349" gradientUnits="userSpaceOnUse">
<stop stop-color="white" stop-opacity="0.94"/>
<stop offset="1" stop-color="white" stop-opacity="0"/>
</linearGradient>
<linearGradient id="paint3_linear_3893_144480" x1="401.324" y1="-141.381" x2="399.42" y2="86.5648" gradientUnits="userSpaceOnUse">
<stop stop-color="white" stop-opacity="0.94"/>
<stop offset="1" stop-color="white" stop-opacity="0"/>
</linearGradient>
<linearGradient id="paint4_linear_3893_144480" x1="959.324" y1="-167.381" x2="957.42" y2="60.5648" gradientUnits="userSpaceOnUse">
<stop stop-color="#98CFFE" stop-opacity="0.41"/>
<stop offset="1" stop-color="#98CFFE" stop-opacity="0"/>
</linearGradient>
<linearGradient id="paint5_linear_3893_144480" x1="1754.79" y1="-89.6809" x2="1259.05" y2="360.748" gradientUnits="userSpaceOnUse">
<stop offset="0.214779" stop-color="#53A2FF"/>
<stop offset="0.781583" stop-color="#53A2FF" stop-opacity="0"/>
</linearGradient>
<linearGradient id="paint6_linear_3893_144480" x1="1724.5" y1="-154.976" x2="1232.08" y2="299.257" gradientUnits="userSpaceOnUse">
<stop offset="0.214779" stop-color="#53A2FF"/>
<stop offset="0.781583" stop-color="#53A2FF" stop-opacity="0"/>
</linearGradient>
<linearGradient id="paint7_linear_3893_144480" x1="1759.61" y1="-138.807" x2="1268.9" y2="317.338" gradientUnits="userSpaceOnUse">
<stop offset="0.214779" stop-color="#53A2FF"/>
<stop offset="0.781583" stop-color="#53A2FF" stop-opacity="0"/>
</linearGradient>
<linearGradient id="paint8_linear_3893_144480" x1="1563.04" y1="36.5592" x2="1427.18" y2="178.27" gradientUnits="userSpaceOnUse">
<stop stop-color="#81BBFF"/>
<stop offset="1" stop-color="#81BBFF" stop-opacity="0"/>
</linearGradient>
<linearGradient id="paint9_linear_3893_144480" x1="1595.39" y1="44.1915" x2="1439.85" y2="195.844" gradientUnits="userSpaceOnUse">
<stop stop-color="#81BBFF"/>
<stop offset="1" stop-color="#81BBFF" stop-opacity="0"/>
</linearGradient>
<linearGradient id="paint10_linear_3893_144480" x1="1590.86" y1="-19.4553" x2="1430.49" y2="127.098" gradientUnits="userSpaceOnUse">
<stop stop-color="#81BBFF"/>
<stop offset="1" stop-color="#81BBFF" stop-opacity="0"/>
</linearGradient>
<linearGradient id="paint11_linear_3893_144480" x1="1212.35" y1="-59.5402" x2="1071.87" y2="106.171" gradientUnits="userSpaceOnUse">
<stop stop-color="#81BBFF"/>
<stop offset="1" stop-color="#81BBFF" stop-opacity="0"/>
</linearGradient>
<clipPath id="clip0_3893_144480">
<path d="M0 0H1620V80H0V0Z" fill="white"/>
</clipPath>
</defs>
</svg>
