<svg width="20" height="20" viewBox="0 0 20 20" fill="none" xmlns="http://www.w3.org/2000/svg">
<path d="M10.001 1.03906C10.6626 1.03906 11.3086 1.10798 11.9307 1.23926C12.2033 1.29679 12.3401 1.32529 12.3955 1.4248C12.4509 1.52438 12.3947 1.67872 12.2832 1.98633C12.1547 2.34081 12.085 2.72324 12.085 3.12207C12.085 3.86672 12.3286 4.55449 12.7412 5.10938C12.7707 5.149 12.7861 5.16918 12.791 5.17676C12.8714 5.30242 12.8466 5.43075 12.7246 5.5166C12.7174 5.52166 12.6973 5.53307 12.6582 5.55664C12.4464 5.67758 11.7995 6.0474 11.3975 6.44922C11.1354 6.71121 10.7174 7.21625 10.6387 7.9502C10.5495 8.78282 10.9354 9.45776 11.3975 9.90723C11.9085 10.4043 12.7604 11.0391 13.9893 11.0391H16.8467C17.2624 11.0391 17.6351 10.9659 17.9658 10.8506C18.4443 10.6836 18.6841 10.6002 18.7939 10.6973C18.9037 10.7946 18.8583 11.0035 18.7666 11.4209C17.9084 15.3279 14.29 18.2334 10.001 18.2334C9.42109 18.2341 8.84291 18.1802 8.27344 18.0732C8.07581 18.0361 7.94988 18.0128 7.85645 18C7.78686 17.9894 7.71669 18.015 7.69043 18.0293C7.59501 18.0746 7.46796 18.1426 7.27344 18.2461C6.08039 18.8805 4.68819 19.1052 3.3457 18.8555C3.12915 18.8151 2.95012 18.6637 2.87402 18.457C2.79797 18.25 2.83648 18.0178 2.97559 17.8467C3.36529 17.3672 3.63344 16.7896 3.75195 16.168C3.78396 15.997 3.71132 15.7646 3.48828 15.5381C1.97595 14.0024 1.04297 11.9255 1.04297 9.63574C1.04311 4.86225 5.08042 1.03906 10.001 1.03906ZM5.83398 9.16406C5.3739 9.16424 5.00098 9.53694 5.00098 9.99707C5.00098 10.4572 5.3739 10.8299 5.83398 10.8301H5.8418C6.30203 10.8301 6.6748 10.4573 6.6748 9.99707C6.6748 9.53684 6.30203 9.16407 5.8418 9.16406H5.83398ZM9.16406 9.16406C8.70383 9.16406 8.33105 9.53683 8.33105 9.99707C8.33106 10.4573 8.70383 10.8301 9.16406 10.8301H9.1709C9.63114 10.8301 10.0049 10.4573 10.0049 9.99707C10.0049 9.53683 9.63114 9.16406 9.1709 9.16406H9.16406Z" fill="#7D91A6"/>
<path d="M13.3049 6.62665C14.5935 5.8432 16.2399 5.8432 17.5286 6.62665C17.7529 6.75517 18.2753 7.05546 18.5533 7.33327C18.7303 7.51024 18.9186 7.76316 18.953 8.08397C18.9898 8.42813 18.8395 8.74473 18.5654 9.01138C18.1631 9.40265 17.6089 9.78906 16.8456 9.78906H13.9879C13.2246 9.78906 12.6704 9.40265 12.2681 9.01138C11.994 8.74473 11.8437 8.42813 11.8805 8.08397C11.9148 7.76316 12.1031 7.51025 12.2802 7.33327C12.5582 7.05546 13.0806 6.75517 13.3049 6.62665Z" fill="#7D91A6"/>
<path d="M15.4167 5.20573C16.5673 5.20573 17.5 4.27299 17.5 3.1224C17.5 1.9718 16.5673 1.03906 15.4167 1.03906C14.2661 1.03906 13.3333 1.9718 13.3333 3.1224C13.3333 4.27299 14.2661 5.20573 15.4167 5.20573Z" fill="#7D91A6"/>
</svg>
