<svg width="30" height="30" viewBox="0 0 30 30" fill="none" xmlns="http://www.w3.org/2000/svg">
<path d="M29.7437 14.3314L20.7442 4.33198C20.5522 4.11999 20.2842 4 20.0003 4H14.0006C13.6066 4 13.2486 4.23199 13.0866 4.59197C12.9266 4.95395 12.9926 5.37593 13.2566 5.66791L21.6542 14.9994L13.2566 24.3289C12.9926 24.6229 12.9246 25.0449 13.0866 25.4048C13.2486 25.7668 13.6066 25.9988 14.0006 25.9988H20.0003C20.2842 25.9988 20.5522 25.8768 20.7442 25.6688L29.7437 15.6694C30.0857 15.2894 30.0857 14.7094 29.7437 14.3314Z" fill="#4CAF50"/>
<path d="M16.7442 14.3314L7.7447 4.33198C7.55272 4.11999 7.28473 4 7.00074 4H1.00107C0.607092 4 0.249111 4.23199 0.0871198 4.59197C-0.0728715 4.95395 -0.00687508 5.37593 0.257111 5.66791L8.65466 14.9994L0.257111 24.3289C-0.00687508 24.6229 -0.0748714 25.0449 0.0871198 25.4048C0.249111 25.7668 0.607092 25.9988 1.00107 25.9988H7.00074C7.28473 25.9988 7.55272 25.8768 7.7447 25.6688L16.7442 15.6694C17.0862 15.2894 17.0862 14.7094 16.7442 14.3314Z" fill="#4CAF50"/>
</svg>
