<svg width="20" height="20" viewBox="0 0 20 20" fill="none" xmlns="http://www.w3.org/2000/svg">
<path d="M11.1958 5.83203L5.96596 11.0619M5.96596 11.0619L4.02273 13.0051C3.27141 13.7565 2.89575 14.1321 2.69787 14.6098C2.5 15.0875 2.5 15.6188 2.5 16.6813V17.4987H3.31735C4.37989 17.4987 4.91115 17.4987 5.38886 17.3008C5.86657 17.103 6.24223 16.7273 6.99356 15.976L11.9076 11.0619M5.96596 11.0619H11.9076M11.9076 11.0619L14.1667 8.80285" stroke="#1A2229" stroke-width="1.5" stroke-linecap="round" stroke-linejoin="round"/>
<path d="M16.0075 6.99057L17.3503 8.33333M16.0075 6.99057L16.7258 6.27235C16.9695 6.02859 17.0914 5.90671 17.1761 5.78774C17.6084 5.18063 17.6084 4.36627 17.1761 3.75917C17.0914 3.6402 16.9695 3.51832 16.7258 3.27456C16.482 3.03081 16.3601 2.90891 16.2412 2.8242C15.6341 2.39193 14.8197 2.39193 14.2126 2.8242C14.0936 2.90891 13.9717 3.0308 13.728 3.27456L13.0098 3.99278M16.0075 6.99057L13.0098 3.99278M11.667 2.65002L13.0098 3.99278" stroke="#1A2229" stroke-width="1.5" stroke-linecap="round" stroke-linejoin="round"/>
</svg>
