<svg width="20" height="20" viewBox="0 0 20 20" fill="none" xmlns="http://www.w3.org/2000/svg">
<path d="M8.33333 10.2752C8.33333 10.0168 8.33333 9.88769 8.36173 9.78171C8.43878 9.49414 8.66341 9.26951 8.95098 9.19246C9.05696 9.16406 9.18612 9.16406 9.44444 9.16406H10.5556C10.8139 9.16406 10.943 9.16406 11.049 9.19246C11.3366 9.26951 11.5612 9.49414 11.6383 9.78171C11.6667 9.88769 11.6667 10.0168 11.6667 10.2752V10.8307C11.6667 11.7512 10.9205 12.4974 10 12.4974C9.07952 12.4974 8.33333 11.7512 8.33333 10.8307V10.2752Z" stroke="#7D91A6" stroke-width="1.5" stroke-linecap="round" stroke-linejoin="round"/>
<path d="M11.5013 10.8333C11.761 10.7579 12.0555 10.6671 12.4 10.5608L15.876 9.48886C17.1131 9.10734 17.7186 8.44248 17.8504 7.29148C17.9093 6.77665 17.9387 6.51924 17.8973 6.30852C17.7791 5.7072 17.2741 5.21962 16.6011 5.05699C16.3652 5 16.0692 5 15.477 5H4.52297C3.93084 5 3.63477 5 3.39893 5.05699C2.72592 5.21962 2.22092 5.7072 2.10269 6.30852C2.06126 6.51924 2.09072 6.77665 2.14964 7.29148C2.28137 8.44248 2.88687 9.10734 4.12401 9.48886L7.59996 10.5608C7.94447 10.6671 8.23903 10.7579 8.49871 10.8333" stroke="#7D91A6" stroke-width="1.5"/>
<path d="M2.88569 9.16406L2.72215 10.9743C2.42901 14.2192 2.28243 15.8417 3.22278 16.8779C4.16313 17.9141 5.78209 17.9141 9.02001 17.9141H10.98C14.2179 17.9141 15.8369 17.9141 16.7772 16.8779C17.7176 15.8417 17.571 14.2192 17.2778 10.9743L17.1143 9.16406" stroke="#7D91A6" stroke-width="1.5" stroke-linecap="round" stroke-linejoin="round"/>
<path d="M12.9167 4.58203L12.8523 4.36127C12.5314 3.26124 12.371 2.71122 11.9891 2.39663C11.6072 2.08203 11.0999 2.08203 10.0853 2.08203H9.91472C8.90012 2.08203 8.39282 2.08203 8.01091 2.39663C7.62899 2.71122 7.46856 3.26124 7.14772 4.36127L7.08333 4.58203" stroke="#7D91A6" stroke-width="1.5"/>
</svg>
