<svg width="24" height="24" viewBox="0 0 24 24" fill="none" xmlns="http://www.w3.org/2000/svg">
<path d="M12.8141 12.1959L5.2821 13.4519C5.19551 13.4663 5.11425 13.5033 5.04649 13.5591C4.97873 13.615 4.92686 13.6876 4.8961 13.7699L2.2991 20.7269C2.0511 21.3669 2.7201 21.9769 3.3341 21.6699L21.3341 12.6699C21.4588 12.6076 21.5636 12.5119 21.6369 12.3933C21.7102 12.2748 21.7491 12.1382 21.7491 11.9989C21.7491 11.8595 21.7102 11.7229 21.6369 11.6044C21.5636 11.4859 21.4588 11.3901 21.3341 11.3279L3.3341 2.32786C2.7201 2.02086 2.0511 2.63186 2.2991 3.27086L4.8971 10.2279C4.92772 10.3103 4.97952 10.3832 5.04729 10.4392C5.11506 10.4952 5.1964 10.5323 5.2831 10.5469L12.8151 11.8019C12.8615 11.81 12.9035 11.8342 12.9337 11.8702C12.964 11.9063 12.9806 11.9518 12.9806 11.9989C12.9806 12.0459 12.964 12.0915 12.9337 12.1275C12.9035 12.1635 12.8615 12.1877 12.8151 12.1959H12.8141Z" fill="#7D91A6"/>
</svg>
