<svg width="32" height="32" viewBox="0 0 512 512" fill="none" xmlns="http://www.w3.org/2000/svg">
<g clip-path="url(#clip0_5435_117761)">
<path d="M256 512C397.385 512 512 397.385 512 256C512 114.615 397.385 0 256 0C114.615 0 0 114.615 0 256C0 397.385 114.615 512 256 512Z" fill="#039BE5"/>
<path d="M117.142 250.454L363.968 155.286C375.424 151.147 385.43 158.081 381.718 175.403L381.739 175.382L339.712 373.377C336.598 387.414 328.256 390.827 316.587 384.214L252.587 337.046L221.718 366.785C218.304 370.198 215.424 373.078 208.811 373.078L213.355 307.947L331.968 200.79C337.131 196.246 330.816 193.686 324.011 198.209L177.43 290.497L114.24 270.785C100.523 266.433 100.224 257.067 117.142 250.454Z" fill="white"/>
</g>
<defs>
<clipPath id="clip0_5435_117761">
<rect width="512" height="512" fill="white"/>
</clipPath>
</defs>
</svg>
