<svg xmlns="http://www.w3.org/2000/svg" width="18" height="18" viewBox="0 0 18 18" fill="none">
  <path d="M1.5 16.4987L5.66667 12.332" stroke="#141B34" stroke-width="1.5" stroke-linecap="round" stroke-linejoin="round"/>
  <path d="M10.0485 14.7261C6.92914 14.0179 3.98187 11.0706 3.27361 7.95125C3.1615 7.45745 3.10544 7.21055 3.26784 6.80998C3.43025 6.40941 3.62864 6.28546 4.02542 6.03757C4.92238 5.47721 5.89362 5.29907 6.90158 5.38822C8.31592 5.51332 9.0231 5.57586 9.37587 5.39206C9.72864 5.20826 9.96837 4.77848 10.4478 3.91891L11.0552 2.83003C11.4553 2.11273 11.6553 1.75408 12.1259 1.58501C12.5965 1.41594 12.8797 1.51833 13.4461 1.72309C14.7706 2.20196 15.7978 3.22921 16.2767 4.55374C16.4815 5.12014 16.5839 5.40334 16.4148 5.87392C16.2458 6.3445 15.8871 6.54455 15.1698 6.94465L14.0558 7.56599C13.1979 8.04453 12.7689 8.2838 12.5852 8.64002C12.4014 8.99624 12.4682 9.68802 12.6016 11.0716C12.6998 12.089 12.5306 13.0667 11.9627 13.9747C11.7146 14.3715 11.5905 14.5699 11.1901 14.7321C10.7896 14.8944 10.5426 14.8383 10.0485 14.7261Z" stroke="#141B34" stroke-width="1.5" stroke-linecap="round" stroke-linejoin="round"/>
</svg>