<svg width="20" height="20" viewBox="0 0 20 20" fill="none" xmlns="http://www.w3.org/2000/svg">
<path d="M4.14902 8.0696C2.49412 7.40764 1.66667 7.07666 1.66667 6.66536C1.66667 6.25407 2.49412 5.92309 4.14902 5.26113L6.48941 4.32497C8.14432 3.66301 8.97177 3.33203 10 3.33203C11.0282 3.33203 11.8557 3.66301 13.5106 4.32497L15.851 5.26113C17.5059 5.92309 18.3333 6.25407 18.3333 6.66536C18.3333 7.07666 17.5059 7.40764 15.851 8.0696L13.5106 9.00575C11.8557 9.66772 11.0282 9.9987 10 9.9987C8.97177 9.9987 8.14432 9.66772 6.48941 9.00575L4.14902 8.0696Z" stroke="#1A2229" stroke-width="1.5"/>
<path d="M18.3333 10C18.3333 10 17.5059 10.7423 15.851 11.4042L13.5106 12.3404C11.8557 13.0024 11.0282 13.3333 10 13.3333C8.97177 13.3333 8.14432 13.0024 6.48941 12.3404L4.14902 11.4042C2.49412 10.7423 1.66667 10 1.66667 10" stroke="#1A2229" stroke-width="1.5" stroke-linecap="round"/>
<path d="M18.3333 13.332C18.3333 13.332 17.5059 14.0743 15.851 14.7363L13.5106 15.6724C11.8557 16.3344 11.0282 16.6654 10 16.6654C8.97177 16.6654 8.14432 16.3344 6.48941 15.6724L4.14902 14.7363C2.49412 14.0743 1.66667 13.332 1.66667 13.332" stroke="#1A2229" stroke-width="1.5" stroke-linecap="round"/>
</svg>
