<svg width="22" height="22" viewBox="0 0 22 22" fill="none" xmlns="http://www.w3.org/2000/svg">
<path d="M11.248 0.162109C12.1582 0.0784863 13.9384 -0.0507734 15.6807 0.0214844C16.5507 0.0575773 17.4366 0.144646 18.21 0.322266C18.9584 0.494209 19.7166 0.775207 20.2207 1.2793C20.7248 1.78339 21.0058 2.54158 21.1777 3.29004C21.3554 4.06339 21.4424 4.94934 21.4785 5.81934C21.5508 7.56159 21.4215 9.3418 21.3379 10.252C21.2857 10.8199 21.0533 11.3444 20.6904 11.7666C17.9812 14.9189 15.1729 17.7886 12.1064 20.5342C10.7034 21.7905 8.60858 21.804 7.14746 20.6729C4.73777 18.8071 2.69289 16.7622 0.827148 14.3525C-0.303987 12.8914 -0.290432 10.7966 0.96582 9.39355C3.71143 6.32714 6.58115 3.51882 9.7334 0.80957C10.1556 0.4467 10.6801 0.214296 11.248 0.162109ZM6.45703 12.043C6.0665 11.6525 5.43347 11.6525 5.04297 12.043C4.6525 12.4335 4.65252 13.0665 5.04297 13.457L8.04297 16.457C8.43348 16.8475 9.0665 16.8475 9.45703 16.457C9.84756 16.0665 9.84756 15.4335 9.45703 15.043L6.45703 12.043ZM16.25 3.75C15.4216 3.75005 14.75 4.42162 14.75 5.25C14.75 6.07839 15.4216 6.74995 16.25 6.75C17.0784 6.75 17.75 6.07843 17.75 5.25C17.75 4.42159 17.0784 3.75 16.25 3.75Z" fill="#7D91A6"/>
</svg>
