<svg width="20" height="20" viewBox="0 0 20 20" fill="none" xmlns="http://www.w3.org/2000/svg">
<path fill-rule="evenodd" clip-rule="evenodd" d="M5.83333 0.9375C6.29357 0.9375 6.66667 1.3106 6.66667 1.77083V3.4375C6.66667 3.89774 6.29357 4.27083 5.83333 4.27083C5.3731 4.27083 5 3.89774 5 3.4375V1.77083C5 1.3106 5.3731 0.9375 5.83333 0.9375ZM10 0.9375C10.4602 0.9375 10.8333 1.3106 10.8333 1.77083V3.4375C10.8333 3.89774 10.4602 4.27083 10 4.27083C9.53976 4.27083 9.16667 3.89774 9.16667 3.4375V1.77083C9.16667 1.3106 9.53976 0.9375 10 0.9375ZM14.1667 0.9375C14.6269 0.9375 15 1.3106 15 1.77083V3.4375C15 3.89774 14.6269 4.27083 14.1667 4.27083C13.7064 4.27083 13.3333 3.89774 13.3333 3.4375V1.77083C13.3333 1.3106 13.7064 0.9375 14.1667 0.9375Z" fill="#7D91A6"/>
<path d="M11.2959 1.98047C12.631 1.98045 13.6965 1.98046 14.5322 2.09277C15.3958 2.20888 16.1073 2.45496 16.6699 3.01758C17.2325 3.58019 17.4786 4.29172 17.5947 5.15527C17.707 5.99103 17.707 7.05652 17.707 8.3916V12.6514C17.707 13.9868 17.7071 15.0528 17.5947 15.8887C17.4786 16.7522 17.2325 17.4638 16.6699 18.0264C16.1073 18.5889 15.3957 18.8351 14.5322 18.9512C13.6965 19.0635 12.631 19.0635 11.2959 19.0635H8.70215C7.36709 19.0635 6.30157 19.0635 5.46582 18.9512C4.60235 18.8351 3.89072 18.5889 3.32812 18.0264C2.76551 17.4638 2.51942 16.7522 2.40332 15.8887C2.29095 15.0528 2.291 13.9868 2.29102 12.6514V8.3916C2.291 7.05652 2.291 5.99103 2.40332 5.15527C2.51942 4.29172 2.76551 3.58019 3.32812 3.01758C3.89074 2.45496 4.60227 2.20888 5.46582 2.09277C6.30158 1.98046 7.36707 1.98045 8.70215 1.98047H11.2959ZM6.66602 11.7715C6.20578 11.7715 5.83203 12.1452 5.83203 12.6055C5.83221 13.0656 6.20589 13.4385 6.66602 13.4385H9.99902C10.4592 13.4385 10.8319 13.0656 10.832 12.6055C10.832 12.1452 10.4593 11.7715 9.99902 11.7715H6.66602ZM6.66602 7.60547C6.20578 7.60547 5.83203 7.97824 5.83203 8.43848C5.83203 8.89871 6.20578 9.27148 6.66602 9.27148H13.332C13.7923 9.27148 14.166 8.89871 14.166 8.43848C14.166 7.97824 13.7923 7.60547 13.332 7.60547H6.66602Z" fill="#7D91A6"/>
</svg>
