<svg width="20" height="20" viewBox="0 0 20 20" fill="none" xmlns="http://www.w3.org/2000/svg">
<path d="M9.06146 17.9282L7.36954 16.924C6.94013 16.6691 6.72543 16.5417 6.48714 16.5343C6.22965 16.5263 6.01113 16.6486 5.54713 16.924C5.02745 17.2324 3.99411 18.0821 3.32569 17.677C2.91667 17.429 2.91667 16.7991 2.91667 15.5394V6.66797C2.91667 4.31095 2.91667 3.13243 3.6489 2.4002C4.38113 1.66797 5.55964 1.66797 7.91667 1.66797H12.0833C14.4404 1.66797 15.6189 1.66797 16.3511 2.4002C17.0833 3.13243 17.0833 4.31095 17.0833 6.66797V15.5394C17.0833 16.7991 17.0833 17.429 16.6743 17.677C16.0059 18.0821 14.9725 17.2324 14.4529 16.924C14.0235 16.6691 13.8088 16.5417 13.5705 16.5343C13.313 16.5263 13.0945 16.6486 12.6305 16.924L10.9385 17.9282C10.4821 18.1991 10.2539 18.3346 10 18.3346C9.74607 18.3346 9.51784 18.1991 9.06146 17.9282Z" stroke="#7D91A6" stroke-width="1.5" stroke-linecap="round" stroke-linejoin="round"/>
<path d="M12.5 6.66797L7.5 11.668" stroke="#7D91A6" stroke-width="1.5" stroke-linecap="round" stroke-linejoin="round"/>
<path d="M12.5 11.668H12.4925M7.50747 6.66797H7.5" stroke="#7D91A6" stroke-width="2" stroke-linecap="round" stroke-linejoin="round"/>
</svg>
