<svg width="20" height="20" viewBox="0 0 20 20" fill="none" xmlns="http://www.w3.org/2000/svg">
<path d="M17.7646 5.94986L17.3532 5.23603C17.0422 4.69617 16.8866 4.42624 16.622 4.3186C16.3573 4.21096 16.058 4.2959 15.4594 4.46577L14.4426 4.75218C14.0604 4.84031 13.6594 4.79032 13.3105 4.61103L13.0297 4.44905C12.7305 4.25739 12.5003 3.97481 12.3729 3.64265L12.0946 2.8115C11.9117 2.26148 11.8202 1.98647 11.6024 1.82917C11.3845 1.67188 11.0952 1.67188 10.5166 1.67188H9.58761C9.00898 1.67188 8.71967 1.67188 8.50185 1.82917C8.28404 1.98647 8.19255 2.26148 8.00957 2.8115L7.73128 3.64265C7.60387 3.97481 7.37371 4.25739 7.07447 4.44905L6.79374 4.61103C6.44478 4.79032 6.04382 4.84031 5.66165 4.75218L4.64479 4.46577C4.04618 4.2959 3.74687 4.21096 3.48223 4.3186C3.21758 4.42624 3.06204 4.69617 2.75096 5.23603L2.33964 5.94986C2.04805 6.4559 1.90225 6.70892 1.93055 6.97827C1.95885 7.24762 2.15402 7.46468 2.54438 7.8988L3.40359 8.85938C3.61358 9.12524 3.76267 9.58854 3.76267 10.0051C3.76267 10.4219 3.61363 10.8851 3.40361 11.1509L2.54439 12.1115C2.15403 12.5457 1.95885 12.7627 1.93055 13.0321C1.90225 13.3014 2.04805 13.5545 2.33964 14.0605L2.75095 14.7743C3.06202 15.3141 3.21758 15.5841 3.48223 15.6917C3.74688 15.7994 4.04619 15.7144 4.64481 15.5445L5.66162 15.2581C6.04386 15.17 6.44489 15.22 6.79389 15.3994L7.07458 15.5614C7.37376 15.753 7.60387 16.0356 7.73125 16.3677L8.00957 17.1989C8.19255 17.7489 8.28404 18.0239 8.50185 18.1812C8.71967 18.3385 9.00898 18.3385 9.58761 18.3385H10.5166C11.0952 18.3385 11.3845 18.3385 11.6024 18.1812C11.8202 18.0239 11.9117 17.7489 12.0946 17.1989L12.373 16.3677C12.5003 16.0356 12.7305 15.753 13.0296 15.5614L13.3103 15.3994C13.6593 15.22 14.0604 15.17 14.4426 15.2581L15.4594 15.5445C16.058 15.7144 16.3573 15.7994 16.622 15.6917C16.8866 15.5841 17.0422 15.3142 17.3533 14.7743L17.3533 14.7743L17.7646 14.0605C18.0562 13.5545 18.202 13.3014 18.1737 13.0321C18.1454 12.7627 17.9502 12.5457 17.5598 12.1115L16.7006 11.1509C16.4906 10.8851 16.3415 10.4219 16.3415 10.0051C16.3415 9.58854 16.4906 9.12524 16.7006 8.85938L17.5598 7.8988C17.9502 7.46468 18.1454 7.24762 18.1737 6.97827C18.202 6.70892 18.0562 6.4559 17.7646 5.94986Z" stroke="#7D91A6" stroke-width="1.5" stroke-linecap="round"/>
<path d="M12.9329 9.9987C12.9329 11.6095 11.6271 12.9154 10.0163 12.9154C8.40545 12.9154 7.09961 11.6095 7.09961 9.9987C7.09961 8.38787 8.40545 7.08203 10.0163 7.08203C11.6271 7.08203 12.9329 8.38787 12.9329 9.9987Z" stroke="#7D91A6" stroke-width="1.5"/>
</svg>
