<svg width="20" height="20" viewBox="0 0 20 20" fill="none" xmlns="http://www.w3.org/2000/svg">
<path d="M5.83366 5.83333H13.9587C15.7142 5.83333 16.592 5.83333 17.2226 6.25466C17.4956 6.43706 17.7299 6.67143 17.9123 6.94441C18.3337 7.57497 18.3337 8.45276 18.3337 10.2083C18.3337 13.1343 18.3337 14.5973 17.6315 15.6482C17.3275 16.1032 16.9368 16.4938 16.4819 16.7978C15.4309 17.5 13.968 17.5 11.042 17.5H10.0003C6.07195 17.5 4.10777 17.5 2.88738 16.2796C1.66699 15.0592 1.66699 13.095 1.66699 9.16667V6.62023C1.66699 5.1065 1.66699 4.34964 1.98392 3.78172C2.20984 3.37689 2.54388 3.04285 2.94871 2.81693C3.51663 2.5 4.27349 2.5 5.78722 2.5C6.75701 2.5 7.24191 2.5 7.66637 2.65917C8.63551 3.0226 9.03515 3.90298 9.47246 4.7776L10.0003 5.83333" stroke="#7D91A6" stroke-width="1.5" stroke-linecap="round"/>
</svg>
