<svg width="32" height="32" viewBox="0 0 32 32" fill="none" xmlns="http://www.w3.org/2000/svg">
<path d="M23.0362 1.46875H8.96375C4.81575 1.46875 1.45312 4.83137 1.45312 8.97937V23.0519C1.45312 27.1999 4.81575 30.5625 8.96375 30.5625H23.0362C27.1843 30.5625 30.5469 27.1999 30.5469 23.0519V8.97937C30.5469 4.83137 27.1843 1.46875 23.0362 1.46875Z" fill="url(#paint0_linear_5381_117522)"/>
<path d="M16 5.44531C14.1829 5.44562 12.3979 5.92448 10.8246 6.83372C9.25139 7.74297 7.94534 9.05052 7.03791 10.6248C6.13048 12.1991 5.65367 13.9846 5.65546 15.8017C5.65725 17.6188 6.13757 19.4034 7.0481 20.9759L5.64185 26.3591L11.1137 24.9097C12.5002 25.6523 14.0377 26.0689 15.6094 26.128C17.181 26.1871 18.7455 25.887 20.1838 25.2507C21.6221 24.6143 22.8963 23.6583 23.9097 22.4555C24.923 21.2526 25.6487 19.8346 26.0317 18.3091C26.4146 16.7837 26.4447 15.191 26.1196 13.6521C25.7945 12.1133 25.1229 10.6689 24.1557 9.42863C23.1885 8.18839 21.9512 7.185 20.538 6.49476C19.1248 5.80453 17.5728 5.44561 16 5.44531ZM22.0837 21.8747C20.6947 23.263 18.8727 24.1347 16.9201 24.3451C14.9675 24.5555 13.0017 24.092 11.3487 23.0316L8.16997 23.8747L8.98247 20.7697C8.03329 19.432 7.4862 17.851 7.40567 16.2128C7.32514 14.5746 7.71452 12.9475 8.52794 11.5232C9.34135 10.0989 10.5449 8.93677 11.9968 8.17373C13.4487 7.41069 15.0884 7.07853 16.7228 7.21638C18.3572 7.35423 19.9181 7.95635 21.2217 8.95179C22.5253 9.94723 23.5172 11.2945 24.0806 12.8349C24.6439 14.3753 24.7553 16.0447 24.4015 17.6462C24.0477 19.2478 23.2435 20.7149 22.0837 21.8747Z" fill="white"/>
<path d="M21.1838 18.5007C21.1843 18.6708 21.1699 18.8406 21.1407 19.0082C21.1132 19.1781 21.0714 19.3454 21.0157 19.5082C20.8875 19.8701 20.1875 20.3132 20.1875 20.3132C19.6901 20.6443 19.0957 20.7984 18.5 20.7507C18.3604 20.7365 18.2216 20.7143 18.0844 20.6845C17.8519 20.6326 17.7388 20.5995 17.7388 20.5995C17.6263 20.5663 17.3344 20.4745 17.3344 20.4745C17.0425 20.3832 16.9769 20.3657 16.9769 20.3657C16.5336 20.2325 16.1039 20.0573 15.6938 19.8426C14.7482 19.3288 13.7182 18.4082 13.7182 18.4082C13.1083 17.8661 12.557 17.2615 12.0732 16.6045C11.8158 16.2198 11.5941 15.8125 11.4107 15.3876C11.3857 15.3251 11.2625 15.0445 11.2625 15.0445C11.1375 14.7645 11.0938 14.6564 11.0938 14.6564C11.0488 14.5476 10.9688 14.3226 10.9688 14.3226C10.9232 14.1898 10.8858 14.0544 10.8569 13.917C10.8339 13.793 10.8185 13.6678 10.8107 13.542C10.7744 12.8845 11.1013 12.1926 11.1013 12.1926C11.4607 11.4489 11.8094 11.2788 11.8094 11.2788C11.9654 11.2085 12.1262 11.1493 12.2907 11.102C12.4534 11.0515 12.621 11.018 12.7907 11.002C12.8415 10.997 12.8927 11.0014 12.9419 11.0151C13.0732 11.0507 13.3513 11.537 13.3513 11.537C13.4375 11.6682 13.5869 11.912 13.5869 11.912C13.7369 12.1545 13.8625 12.3495 13.8625 12.3495C13.9875 12.5463 14.105 12.7189 14.105 12.7189C14.1282 12.7464 14.24 12.8907 14.24 12.8907C14.3015 12.9684 14.3575 13.0503 14.4075 13.1357C14.4419 13.1976 14.4632 13.2659 14.47 13.3363C14.4775 13.4795 14.2863 13.7051 14.2863 13.7051C14.1564 13.8545 14.0156 13.994 13.865 14.1226C13.7165 14.2486 13.5756 14.3834 13.4432 14.5264C13.2507 14.7376 13.2557 14.8664 13.2557 14.8664C13.2632 14.921 13.2781 14.9744 13.3 15.0251C13.3413 15.1195 13.3694 15.1682 13.3694 15.1682C13.3969 15.2163 13.4788 15.3338 13.4788 15.3338C13.5607 15.4513 13.5682 15.4651 13.5682 15.4651C13.9455 16.0548 14.3945 16.5954 14.905 17.0745C15.6444 17.7357 16.655 18.2239 16.655 18.2239C16.67 18.2301 16.7957 18.2982 16.7957 18.2982C16.9207 18.367 16.9725 18.3888 16.9725 18.3888C17.0238 18.4113 17.1225 18.4413 17.1225 18.4413C17.1749 18.4592 17.2298 18.4682 17.285 18.4682C17.4138 18.4614 17.6025 18.2463 17.6025 18.2463C17.7295 18.0986 17.8476 17.9436 17.9563 17.782C18.0675 17.6184 18.1906 17.4632 18.3244 17.3176C18.5275 17.102 18.6707 17.0938 18.6707 17.0938C18.7413 17.0933 18.8113 17.1064 18.8769 17.1326C18.9669 17.1738 19.0543 17.2204 19.1388 17.272C19.295 17.367 19.3263 17.387 19.3263 17.387C19.5138 17.4845 19.7213 17.587 19.7213 17.587C19.9313 17.6901 20.1888 17.812 20.1888 17.812C20.4463 17.9339 20.5863 18.0045 20.5863 18.0045C21.1007 18.227 21.1488 18.3532 21.1488 18.3532C21.1676 18.4004 21.1794 18.4501 21.1838 18.5007Z" fill="white"/>
<defs>
<linearGradient id="paint0_linear_5381_117522" x1="16" y1="30.5625" x2="16" y2="1.46875" gradientUnits="userSpaceOnUse">
<stop stop-color="#23B33A"/>
<stop offset="0.521038" stop-color="#55D062"/>
<stop offset="1" stop-color="#3AF15D"/>
</linearGradient>
</defs>
</svg>
