<svg width="20" height="20" viewBox="0 0 20 20" fill="none" xmlns="http://www.w3.org/2000/svg">
<g clip-path="url(#clip0_7003_47125)">
<ellipse cx="12.9167" cy="9.16667" rx="5.41667" ry="1.66667" stroke="#7D91A6" stroke-width="1.5"/>
<path d="M18.3333 12.918C18.3333 13.8384 15.9082 14.5846 12.9167 14.5846C9.92512 14.5846 7.5 13.8384 7.5 12.918" stroke="#7D91A6" stroke-width="1.5"/>
<path d="M18.3333 9.16797V16.5013C18.3333 17.5138 15.9082 18.3346 12.9167 18.3346C9.92512 18.3346 7.5 17.5138 7.5 16.5013V9.16797" stroke="#7D91A6" stroke-width="1.5"/>
<ellipse cx="7.08333" cy="3.33464" rx="5.41667" ry="1.66667" stroke="#7D91A6" stroke-width="1.5"/>
<path d="M5 9.16667C3.42349 8.97481 1.97493 8.47878 1.66667 7.5M5 13.3333C3.42349 13.1415 1.97493 12.6455 1.66667 11.6667" stroke="#7D91A6" stroke-width="1.5" stroke-linecap="round"/>
<path d="M5 17.5026C3.42349 17.3108 1.97493 16.8147 1.66667 15.8359L1.66667 3.33594" stroke="#7D91A6" stroke-width="1.5" stroke-linecap="round"/>
<path d="M12.5 5.0026V3.33594" stroke="#7D91A6" stroke-width="1.5" stroke-linecap="round"/>
</g>
<defs>
<clipPath id="clip0_7003_47125">
<rect width="20" height="20" fill="white"/>
</clipPath>
</defs>
</svg>
