<svg width="88" height="88" viewBox="0 0 88 88" fill="none" xmlns="http://www.w3.org/2000/svg">
<rect x="0.5" y="0.5" width="87" height="87" rx="43.5" fill="url(#paint0_linear_640_70746)"/>
<rect x="0.5" y="0.5" width="87" height="87" rx="43.5" stroke="url(#paint1_linear_640_70746)"/>
<g filter="url(#filter0_d_640_70746)">
<rect x="16" y="16" width="56" height="56" rx="28" fill="white"/>
<rect x="16.5" y="16.5" width="55" height="55" rx="27.5" stroke="#E8EDF2"/>
<path d="M36.416 40.5C36.416 36.6502 36.416 34.7253 37.5266 33.5294C38.6371 32.3334 40.4245 32.3334 43.9993 32.3334C47.5742 32.3334 49.3616 32.3334 50.4721 33.5294C51.5827 34.7253 51.5827 36.6502 51.5827 40.5V47.5C51.5827 51.3498 51.5827 53.2747 50.4721 54.4707C49.3616 55.6667 47.5742 55.6667 43.9993 55.6667C40.4245 55.6667 38.6371 55.6667 37.5266 54.4707C36.416 53.2747 36.416 51.3498 36.416 47.5V40.5Z" stroke="#141B34" stroke-width="1.5" stroke-linecap="round"/>
<path d="M44 52.1666H44.0105" stroke="#141B34" stroke-width="2" stroke-linecap="round" stroke-linejoin="round"/>
<path d="M42.833 35.8334H45.1663" stroke="#141B34" stroke-width="1.5" stroke-linecap="round" stroke-linejoin="round"/>
<path d="M55.6667 39.9166C55.6667 39.9166 54.5 40.3203 54.5 41.4479C54.5 42.5755 55.6667 42.8724 55.6667 44C55.6667 45.1275 54.5 45.4245 54.5 46.552C54.5 47.6796 55.6667 48.0833 55.6667 48.0833" stroke="#141B34" stroke-width="1.5" stroke-linecap="round" stroke-linejoin="round"/>
<path d="M32.3333 39.9166C32.3333 39.9166 33.5 40.3203 33.5 41.4479C33.5 42.5755 32.3333 42.8724 32.3333 44C32.3333 45.1275 33.5 45.4245 33.5 46.552C33.5 47.6796 32.3333 48.0833 32.3333 48.0833" stroke="#141B34" stroke-width="1.5" stroke-linecap="round" stroke-linejoin="round"/>
</g>
<defs>
<filter id="filter0_d_640_70746" x="12" y="14" width="64" height="64" filterUnits="userSpaceOnUse" color-interpolation-filters="sRGB">
<feFlood flood-opacity="0" result="BackgroundImageFix"/>
<feColorMatrix in="SourceAlpha" type="matrix" values="0 0 0 0 0 0 0 0 0 0 0 0 0 0 0 0 0 0 127 0" result="hardAlpha"/>
<feOffset dy="2"/>
<feGaussianBlur stdDeviation="2"/>
<feColorMatrix type="matrix" values="0 0 0 0 0.105882 0 0 0 0 0.109804 0 0 0 0 0.113725 0 0 0 0.04 0"/>
<feBlend mode="normal" in2="BackgroundImageFix" result="effect1_dropShadow_640_70746"/>
<feBlend mode="normal" in="SourceGraphic" in2="effect1_dropShadow_640_70746" result="shape"/>
</filter>
<linearGradient id="paint0_linear_640_70746" x1="44" y1="0" x2="44" y2="88" gradientUnits="userSpaceOnUse">
<stop stop-color="#E4E5E7" stop-opacity="0.48"/>
<stop offset="1" stop-color="#F7F8F8" stop-opacity="0"/>
<stop offset="1" stop-color="#E4E5E7" stop-opacity="0"/>
</linearGradient>
<linearGradient id="paint1_linear_640_70746" x1="44" y1="0" x2="44" y2="88" gradientUnits="userSpaceOnUse">
<stop stop-color="#C5CED8"/>
<stop offset="0.765625" stop-color="#C5CED8" stop-opacity="0"/>
</linearGradient>
</defs>
</svg>
