<svg xmlns="http://www.w3.org/2000/svg" width="37" height="36" viewBox="0 0 37 36" fill="none">
<path fill-rule="evenodd" clip-rule="evenodd" d="M23.7799 22.4462C24.4308 21.7953 25.4861 21.7953 26.1369 22.4462L29.9584 26.2677L33.7799 22.4462C34.4308 21.7953 35.4861 21.7953 36.1369 22.4462C36.7878 23.097 36.7878 24.1523 36.1369 24.8032L32.3154 28.6247L36.1369 32.4462C36.7878 33.097 36.7878 34.1523 36.1369 34.8032C35.4861 35.4541 34.4308 35.4541 33.7799 34.8032L29.9584 30.9817L26.1369 34.8032C25.4861 35.4541 24.4308 35.4541 23.7799 34.8032C23.129 34.1523 23.129 33.097 23.7799 32.4462L27.6014 28.6247L23.7799 24.8032C23.129 24.1523 23.129 23.097 23.7799 22.4462Z" fill="#F04438"/>
<path d="M14.0627 1.10607C12.9979 0.706788 11.8117 0.707313 10.0961 0.708073C8.6315 0.708058 7.16175 0.708114 6.20783 0.792201C5.22493 0.878843 4.3648 1.06211 3.5793 1.50047C2.56722 2.06527 1.73213 2.90036 1.16733 3.91244C0.72897 4.69794 0.545704 5.55807 0.459062 6.54097C0.374975 7.49488 0.374986 8.67609 0.375 10.1406V15.3871C0.374979 19.2344 0.374963 22.2495 0.691245 24.602C1.01498 27.0099 1.69054 28.9099 3.18189 30.4012C4.67324 31.8926 6.57328 32.5682 8.98118 32.8919C11.3337 33.2082 14.3487 33.2082 18.196 33.2081L19.9073 33.2081C20.3085 33.2081 20.5091 33.2081 20.6404 33.113C20.7717 33.0178 20.8474 32.7866 20.9989 32.3243C21.196 31.7225 21.5337 31.1568 22.0121 30.6784L23.3587 29.3318C23.692 28.9984 23.8587 28.8318 23.8587 28.6247C23.8587 28.4176 23.692 28.2509 23.3587 27.9176L22.0121 26.571C20.3849 24.9438 20.3849 22.3056 22.0121 20.6784C23.6392 19.0512 26.2774 19.0512 27.9046 20.6784L29.2512 22.025C29.5846 22.3583 29.7512 22.525 29.9583 22.525C30.1654 22.525 30.3321 22.3583 30.6654 22.025L32.0121 20.6784C32.8035 19.887 33.8341 19.4805 34.8712 19.4589C35.5718 19.4443 35.922 19.4371 36.0648 19.2914C36.2076 19.1457 36.2078 18.8622 36.2081 18.2952C36.2083 18.0181 36.2083 17.7348 36.2083 17.4452C36.2084 15.7469 36.2084 14.2395 36.0966 13.1406C35.9812 12.0063 35.7365 11.0227 35.155 10.1525C34.699 9.47005 34.1131 8.88411 33.4306 8.42812C32.5605 7.84669 31.5768 7.60194 30.4425 7.48656C29.3437 7.37477 27.9741 7.37479 26.2758 7.37481L20.3518 7.37481C19.8249 7.37481 19.5243 7.37327 19.3024 7.35032C19.1323 7.33842 19.0163 7.21239 18.9796 7.15086C18.8598 6.96263 18.4314 6.10661 18.1958 5.6354C17.4091 4.04349 16.3884 1.97823 14.0627 1.10607Z" fill="#F04438"/>
</svg>