<svg width="88" height="88" viewBox="0 0 88 88" fill="none" xmlns="http://www.w3.org/2000/svg">
<rect x="0.5" y="0.5" width="87" height="87" rx="43.5" fill="url(#paint0_linear_2978_113758)"/>
<rect x="0.5" y="0.5" width="87" height="87" rx="43.5" stroke="url(#paint1_linear_2978_113758)"/>
<g filter="url(#filter0_d_2978_113758)">
<rect x="16" y="16" width="56" height="56" rx="28" fill="white"/>
<rect x="16.5" y="16.5" width="55" height="55" rx="27.5" stroke="#E8EDF2"/>
<path d="M38.75 51C39.8196 49.8601 41.3435 49.2634 42.8701 49.2502M45.1667 44C45.1667 45.2886 44.1385 46.3333 42.8701 46.3333C41.6018 46.3333 40.5736 45.2886 40.5736 44C40.5736 42.7113 41.6018 41.6666 42.8701 41.6666C44.1385 41.6666 45.1667 42.7113 45.1667 44Z" stroke="#1A2229" stroke-width="1.5" stroke-linecap="round"/>
<path d="M39.9167 34.668C36.8316 34.6795 35.1813 34.7873 34.1127 35.7996C32.9167 36.9327 32.9167 38.7563 32.9167 42.4034V47.9298C32.9167 51.5769 32.9167 53.4005 34.1127 54.5336C35.3087 55.6666 37.2336 55.6666 41.0834 55.6666H43.4167M45.7501 34.668C48.8352 34.6795 50.4856 34.7873 51.5541 35.7996C52.7501 36.9327 52.7501 38.7563 52.7501 42.4034V43.4166" stroke="#1A2229" stroke-width="1.5" stroke-linecap="round" stroke-linejoin="round"/>
<path d="M40.2343 34.2369C40.3462 33.753 40.4022 33.511 40.5097 33.3134C40.7601 32.8531 41.222 32.5148 41.7734 32.3879C42.0101 32.3334 42.2846 32.3334 42.8334 32.3334C43.3823 32.3334 43.6567 32.3334 43.8934 32.3879C44.4448 32.5148 44.9068 32.8531 45.1572 33.3134C45.2647 33.511 45.3206 33.753 45.4326 34.2369L45.5297 34.6571C45.7283 35.5154 45.8275 35.9445 45.6778 36.2746C45.5808 36.4885 45.4155 36.6715 45.2029 36.8007C44.8746 37 44.3879 37 43.4145 37H42.2523C41.2789 37 40.7922 37 40.4639 36.8007C40.2513 36.6715 40.086 36.4885 39.989 36.2746C39.8393 35.9445 39.9386 35.5154 40.1371 34.6571L40.2343 34.2369Z" stroke="#1A2229" stroke-width="1.5"/>
<path d="M49.184 50.8416C48.8102 50.6633 48.3625 50.8218 48.1842 51.1956C48.0058 51.5695 48.1643 52.0171 48.5382 52.1955L48.8611 51.5186L49.184 50.8416ZM49.8981 52.5556L49.252 52.9363C49.3926 53.1751 49.6535 53.3168 49.9303 53.3049C50.2071 53.293 50.4549 53.1295 50.5746 52.8796L49.8981 52.5556ZM52.3277 50.6234C52.6925 50.4271 52.829 49.9722 52.6326 49.6075C52.4363 49.2428 51.9814 49.1063 51.6167 49.3026L51.9722 49.963L52.3277 50.6234ZM55.0833 51H54.3333C54.3333 53.1632 52.5798 54.9167 50.4167 54.9167V55.6667V56.4167C53.4082 56.4167 55.8333 53.9916 55.8333 51H55.0833ZM50.4167 55.6667V54.9167C48.2536 54.9167 46.5 53.1632 46.5 51H45.75H45C45 53.9916 47.4251 56.4167 50.4167 56.4167V55.6667ZM45.75 51H46.5C46.5 48.8369 48.2536 47.0834 50.4167 47.0834V46.3334V45.5834C47.4251 45.5834 45 48.0085 45 51H45.75ZM50.4167 46.3334V47.0834C52.5798 47.0834 54.3333 48.8369 54.3333 51H55.0833H55.8333C55.8333 48.0085 53.4082 45.5834 50.4167 45.5834V46.3334ZM48.8611 51.5186C48.5382 52.1955 48.5379 52.1954 48.5377 52.1952C48.5376 52.1952 48.5374 52.1951 48.5372 52.195C48.5369 52.1949 48.5366 52.1947 48.5363 52.1946C48.5357 52.1943 48.5352 52.194 48.5346 52.1938C48.5336 52.1933 48.5327 52.1928 48.5319 52.1924C48.5304 52.1917 48.5293 52.1912 48.5288 52.1909C48.5278 52.1904 48.5287 52.1908 48.5315 52.1924C48.5372 52.1954 48.55 52.2025 48.5688 52.214C48.6066 52.2372 48.6673 52.2774 48.741 52.337C48.8884 52.4564 49.0833 52.65 49.252 52.9363L49.8981 52.5556L50.5443 52.1749C50.2686 51.7069 49.9449 51.3819 49.685 51.1714C49.5549 51.066 49.4397 50.9884 49.3524 50.935C49.3088 50.9082 49.2719 50.8874 49.2433 50.872C49.2291 50.8643 49.2169 50.858 49.2069 50.8529C49.202 50.8504 49.1975 50.8482 49.1937 50.8463C49.1918 50.8454 49.1901 50.8445 49.1884 50.8438C49.1876 50.8434 49.1869 50.843 49.1861 50.8426C49.1858 50.8425 49.1854 50.8423 49.1851 50.8421C49.1849 50.842 49.1846 50.8419 49.1845 50.8419C49.1843 50.8418 49.184 50.8416 48.8611 51.5186ZM49.8981 52.5556C50.5746 52.8796 50.5745 52.8797 50.5745 52.8798C50.5745 52.8798 50.5744 52.8799 50.5744 52.8799C50.5744 52.88 50.5743 52.8801 50.5743 52.8801C50.5743 52.8802 50.5743 52.8801 50.5744 52.8799C50.5746 52.8796 50.5749 52.8788 50.5756 52.8775C50.5768 52.875 50.5789 52.8707 50.5819 52.8646C50.5878 52.8525 50.5972 52.8336 50.6099 52.8088C50.6352 52.7589 50.6734 52.6854 50.723 52.5945C50.8225 52.412 50.9657 52.1635 51.1404 51.8991C51.5121 51.3364 51.9442 50.8299 52.3277 50.6234L51.9722 49.963L51.6167 49.3026C50.8787 49.6999 50.2738 50.4896 49.8888 51.0723C49.6852 51.3806 49.5202 51.667 49.4061 51.8763C49.3488 51.9813 49.3038 52.0679 49.2727 52.1292C49.2571 52.1598 49.2449 52.1843 49.2364 52.2016C49.2321 52.2103 49.2287 52.2172 49.2263 52.2222C49.225 52.2247 49.2241 52.2268 49.2233 52.2284C49.2229 52.2291 49.2226 52.2298 49.2223 52.2304C49.2222 52.2306 49.2221 52.2309 49.222 52.2311C49.2219 52.2312 49.2219 52.2313 49.2218 52.2314C49.2218 52.2315 49.2217 52.2316 49.8981 52.5556Z" fill="#1A2229"/>
</g>
<defs>
<filter id="filter0_d_2978_113758" x="12" y="14" width="64" height="64" filterUnits="userSpaceOnUse" color-interpolation-filters="sRGB">
<feFlood flood-opacity="0" result="BackgroundImageFix"/>
<feColorMatrix in="SourceAlpha" type="matrix" values="0 0 0 0 0 0 0 0 0 0 0 0 0 0 0 0 0 0 127 0" result="hardAlpha"/>
<feOffset dy="2"/>
<feGaussianBlur stdDeviation="2"/>
<feColorMatrix type="matrix" values="0 0 0 0 0.105882 0 0 0 0 0.109804 0 0 0 0 0.113725 0 0 0 0.04 0"/>
<feBlend mode="normal" in2="BackgroundImageFix" result="effect1_dropShadow_2978_113758"/>
<feBlend mode="normal" in="SourceGraphic" in2="effect1_dropShadow_2978_113758" result="shape"/>
</filter>
<linearGradient id="paint0_linear_2978_113758" x1="44" y1="0" x2="44" y2="88" gradientUnits="userSpaceOnUse">
<stop stop-color="#E4E5E7" stop-opacity="0.48"/>
<stop offset="1" stop-color="#F7F8F8" stop-opacity="0"/>
<stop offset="1" stop-color="#E4E5E7" stop-opacity="0"/>
</linearGradient>
<linearGradient id="paint1_linear_2978_113758" x1="44" y1="0" x2="44" y2="88" gradientUnits="userSpaceOnUse">
<stop stop-color="#C5CED8"/>
<stop offset="0.765625" stop-color="#C5CED8" stop-opacity="0"/>
</linearGradient>
</defs>
</svg>
