<svg width="22" height="22" viewBox="0 0 22 22" fill="none" xmlns="http://www.w3.org/2000/svg">
<g clip-path="url(#clip0_5145_112639)">
<rect width="20" height="20" rx="6" fill="#2EAD50"/>
<path d="M4.07601 14.7585C0.0905647 9.63701 2.74753 3.10379 4.57419 0.477363L7.56367 -1L18.0255 -0.507546L25 6.87927L23.5055 10.8189L19.52 15.7434C14.3389 19.2891 8.39397 17.8774 6.06913 16.7284C4.87349 17.5163 3.2461 17.385 2.58186 17.2208C4.17604 16.8268 4.2422 15.4151 4.07601 14.7585Z" fill="white"/>
<path d="M16.0104 11.9971C15.6491 11.9971 15.3363 11.9178 15.0719 11.7592C14.8075 11.6006 14.6026 11.3781 14.4572 11.0917C14.314 10.8053 14.2424 10.4726 14.2424 10.0937C14.2424 9.71254 14.314 9.37877 14.4572 9.09237C14.6026 8.80376 14.8075 8.58015 15.0719 8.42153C15.3363 8.2629 15.6491 8.18359 16.0104 8.18359C16.3717 8.18359 16.6846 8.2629 16.9489 8.42153C17.2133 8.58015 17.4182 8.80376 17.5636 9.09237C17.709 9.37877 17.7817 9.71254 17.7817 10.0937C17.7817 10.4726 17.709 10.8053 17.5636 11.0917C17.4182 11.3781 17.2133 11.6006 16.9489 11.7592C16.6846 11.9178 16.3717 11.9971 16.0104 11.9971ZM16.0104 11.2966C16.2109 11.2966 16.3761 11.2437 16.5061 11.1379C16.6361 11.03 16.733 10.8846 16.7969 10.7017C16.863 10.5189 16.896 10.3162 16.896 10.0937C16.896 9.86675 16.863 9.66186 16.7969 9.47901C16.733 9.29615 16.6361 9.15185 16.5061 9.0461C16.3761 8.93815 16.2109 8.88418 16.0104 8.88418C15.8143 8.88418 15.6502 8.93815 15.518 9.0461C15.3858 9.15185 15.2867 9.29615 15.2206 9.47901C15.1567 9.66186 15.1248 9.86675 15.1248 10.0937C15.1248 10.3162 15.1567 10.5189 15.2206 10.7017C15.2867 10.8846 15.3858 11.03 15.518 11.1379C15.6502 11.2437 15.8143 11.2966 16.0104 11.2966Z" fill="#2EAD50"/>
<path d="M13.7568 7V11.9239H12.8877V7H13.7568Z" fill="#2EAD50"/>
<path d="M10.2976 12.0004C10.0619 12.0004 9.85036 11.9586 9.6631 11.8749C9.47583 11.7889 9.32823 11.6634 9.22028 11.4981C9.11233 11.3329 9.05835 11.1291 9.05835 10.8868C9.05835 10.6797 9.0969 10.5079 9.17401 10.3713C9.25112 10.2347 9.35577 10.1256 9.48795 10.0441C9.62234 9.96259 9.77325 9.9009 9.94069 9.85904C10.1081 9.81498 10.2811 9.78414 10.4595 9.76651C10.6776 9.74228 10.8539 9.72135 10.9883 9.70372C11.1226 9.6861 11.2196 9.65746 11.2791 9.6178C11.3407 9.57815 11.3716 9.51646 11.3716 9.43274V9.41622C11.3716 9.23777 11.3187 9.09898 11.213 8.99984C11.1072 8.9007 10.953 8.85113 10.7503 8.85113C10.5366 8.85113 10.367 8.89739 10.2414 8.98992C10.118 9.08245 10.0343 9.19151 9.99026 9.31708L9.18062 9.20142C9.24451 8.97671 9.35026 8.78944 9.49787 8.63963C9.64547 8.48762 9.82502 8.37416 10.0365 8.29926C10.2502 8.22215 10.4859 8.18359 10.7437 8.18359C10.92 8.18359 11.0962 8.20452 11.2725 8.24638C11.4487 8.28604 11.6106 8.35433 11.7582 8.45127C11.9058 8.5482 12.0237 8.67819 12.1118 8.84122C12.2 9.00424 12.244 9.20803 12.244 9.45257V11.9244H11.4079V11.4155H11.3815C11.3286 11.5169 11.2537 11.6127 11.1568 11.703C11.0621 11.7911 10.9431 11.8627 10.7999 11.9178C10.6589 11.9729 10.4915 12.0004 10.2976 12.0004ZM10.519 11.3593C10.6952 11.3593 10.8473 11.3252 10.975 11.2569C11.1028 11.1864 11.202 11.0939 11.2725 10.9793C11.343 10.8625 11.3782 10.7359 11.3782 10.5993V10.1664C11.3496 10.1884 11.3033 10.2093 11.2394 10.2292C11.1755 10.2468 11.1028 10.2633 11.0213 10.2787C10.9398 10.2942 10.8594 10.3074 10.7801 10.3184C10.703 10.3294 10.6358 10.3382 10.5785 10.3448C10.4485 10.3624 10.3317 10.3922 10.2282 10.434C10.1268 10.4737 10.0464 10.5288 9.98695 10.5993C9.92747 10.6698 9.89773 10.7612 9.89773 10.8736C9.89773 11.0344 9.95611 11.1556 10.0729 11.2371C10.1896 11.3186 10.3383 11.3593 10.519 11.3593Z" fill="#2EAD50"/>
<path d="M5.01297 11.9239V11.3687L7.53771 7.74685H4.99976V7H8.64807V7.55848L6.12333 11.1771H8.66129V11.9239H5.01297Z" fill="#2EAD50"/>
</g>
<rect x="0.25" y="0.25" width="19.5" height="19.5" rx="5.75" stroke="#2EAD50" stroke-width="0.5"/>
<rect x="12" y="12" width="10" height="10" rx="5" fill="#2EAD50"/>
<path d="M16.5481 16.9848C16.5481 17.3153 16.4854 17.5964 16.3601 17.8282C16.2359 18.0601 16.0662 18.2371 15.8511 18.3594C15.6371 18.4808 15.3964 18.5414 15.1291 18.5414C14.8598 18.5414 14.6181 18.4803 14.4041 18.358C14.19 18.2356 14.0208 18.0586 13.8965 17.8268C13.7723 17.595 13.7101 17.3143 13.7101 16.9848C13.7101 16.6544 13.7723 16.3733 13.8965 16.1415C14.0208 15.9096 14.19 15.7331 14.4041 15.6117C14.6181 15.4894 14.8598 15.4283 15.1291 15.4283C15.3964 15.4283 15.6371 15.4894 15.8511 15.6117C16.0662 15.7331 16.2359 15.9096 16.3601 16.1415C16.4854 16.3733 16.5481 16.6544 16.5481 16.9848ZM15.8985 16.9848C15.8985 16.7708 15.8664 16.5903 15.8023 16.4433C15.7392 16.2963 15.6499 16.1849 15.5345 16.1089C15.4191 16.0329 15.284 15.995 15.1291 15.995C14.9742 15.995 14.8391 16.0329 14.7237 16.1089C14.6083 16.1849 14.5185 16.2963 14.4544 16.4433C14.3912 16.5903 14.3597 16.7708 14.3597 16.9848C14.3597 17.1989 14.3912 17.3794 14.4544 17.5264C14.5185 17.6734 14.6083 17.7848 14.7237 17.8608C14.8391 17.9368 14.9742 17.9747 15.1291 17.9747C15.284 17.9747 15.4191 17.9368 15.5345 17.8608C15.6499 17.7848 15.7392 17.6734 15.8023 17.5264C15.8664 17.3794 15.8985 17.1989 15.8985 16.9848ZM17.3741 18.5H16.6875L17.7336 15.4697H18.5593L19.6039 18.5H18.9173L18.1583 16.1622H18.1346L17.3741 18.5ZM17.3312 17.3089H18.9528V17.809H17.3312V17.3089Z" fill="white"/>
<defs>
<clipPath id="clip0_5145_112639">
<rect width="20" height="20" rx="6" fill="white"/>
</clipPath>
</defs>
</svg>
