<svg width="44" height="44" viewBox="0 0 44 44" fill="none" xmlns="http://www.w3.org/2000/svg">
<g filter="url(#filter0_d_4252_106440)">
<rect x="2" y="1" width="40" height="40" rx="8" fill="white" shape-rendering="crispEdges"/>
<rect x="2.5" y="1.5" width="39" height="39" rx="7.5" stroke="#C5CED8" shape-rendering="crispEdges"/>
<g clip-path="url(#clip0_4252_106440)">
<path d="M19.5 23.5C19.5 21.143 19.5 19.9645 20.2322 19.2322C20.9645 18.5 22.143 18.5 24.5 18.5L25.3333 18.5C27.6904 18.5 28.8689 18.5 29.6011 19.2322C30.3333 19.9645 30.3333 21.143 30.3333 23.5V24.3333C30.3333 26.6904 30.3333 27.8689 29.6011 28.6011C28.8689 29.3333 27.6904 29.3333 25.3333 29.3333H24.5C22.143 29.3333 20.9645 29.3333 20.2322 28.6011C19.5 27.8689 19.5 26.6904 19.5 24.3333L19.5 23.5Z" stroke="#141B34" stroke-width="1.5" stroke-linecap="round" stroke-linejoin="round"/>
<path d="M26.1669 18.5013C26.1649 16.0371 26.1276 14.7606 25.4104 13.8867C25.2718 13.7179 25.1171 13.5631 24.9483 13.4246C24.0263 12.668 22.6566 12.668 19.917 12.668C17.1774 12.668 15.8076 12.668 14.8857 13.4246C14.7169 13.5631 14.5621 13.7179 14.4236 13.8867C13.667 14.8086 13.667 16.1784 13.667 18.918C13.667 21.6575 13.667 23.0273 14.4236 23.9493C14.5621 24.1181 14.7169 24.2728 14.8857 24.4113C15.7597 25.1286 17.0361 25.1659 19.5003 25.1679" stroke="#141B34" stroke-width="1.5" stroke-linecap="round" stroke-linejoin="round"/>
</g>
</g>
<defs>
<filter id="filter0_d_4252_106440" x="0" y="0" width="44" height="44" filterUnits="userSpaceOnUse" color-interpolation-filters="sRGB">
<feFlood flood-opacity="0" result="BackgroundImageFix"/>
<feColorMatrix in="SourceAlpha" type="matrix" values="0 0 0 0 0 0 0 0 0 0 0 0 0 0 0 0 0 0 127 0" result="hardAlpha"/>
<feOffset dy="1"/>
<feGaussianBlur stdDeviation="1"/>
<feComposite in2="hardAlpha" operator="out"/>
<feColorMatrix type="matrix" values="0 0 0 0 0.0392157 0 0 0 0 0.0509804 0 0 0 0 0.0705882 0 0 0 0.05 0"/>
<feBlend mode="normal" in2="BackgroundImageFix" result="effect1_dropShadow_4252_106440"/>
<feBlend mode="normal" in="SourceGraphic" in2="effect1_dropShadow_4252_106440" result="shape"/>
</filter>
<clipPath id="clip0_4252_106440">
<rect width="20" height="20" fill="white" transform="translate(12 11)"/>
</clipPath>
</defs>
</svg>
