<svg width="20" height="20" viewBox="0 0 20 20" fill="none" xmlns="http://www.w3.org/2000/svg">
<g clip-path="url(#clip0_7003_63306)">
<path d="M10.4167 18.3346H5.49239C4.20457 18.3346 3.18026 17.708 2.26055 16.8318C0.377803 15.0381 3.469 13.6046 4.64798 12.9026C6.5225 11.7865 8.73875 11.4271 10.8333 11.8245" stroke="#7D91A6" stroke-width="1.5" stroke-linecap="round" stroke-linejoin="round"/>
<path d="M12.9167 5.41797C12.9167 7.48904 11.2377 9.16797 9.16667 9.16797C7.0956 9.16797 5.41667 7.48904 5.41667 5.41797C5.41667 3.3469 7.0956 1.66797 9.16667 1.66797C11.2377 1.66797 12.9167 3.3469 12.9167 5.41797Z" stroke="#7D91A6" stroke-width="1.5"/>
<path d="M15.5759 12.1494L16.1625 13.3323C16.2425 13.4969 16.4558 13.6549 16.6358 13.6851L17.699 13.8632C18.3789 13.9775 18.5389 14.4748 18.0489 14.9655L17.2224 15.7989C17.0824 15.94 17.0057 16.2122 17.0491 16.4071L17.2857 17.4388C17.4723 18.2554 17.0424 18.5713 16.3258 18.1445L15.3292 17.5497C15.1493 17.4422 14.8526 17.4422 14.6693 17.5497L13.6728 18.1445C12.9595 18.5713 12.5262 18.252 12.7129 17.4388L12.9495 16.4071C12.9928 16.2122 12.9162 15.94 12.7762 15.7989L11.9496 14.9655C11.463 14.4748 11.6197 13.9775 12.2996 13.8632L13.3628 13.6851C13.5394 13.6549 13.7527 13.4969 13.8327 13.3323L14.4193 12.1494C14.7393 11.5075 15.2592 11.5075 15.5759 12.1494Z" stroke="#7D91A6" stroke-width="1.5" stroke-linecap="round" stroke-linejoin="round"/>
</g>
<defs>
<clipPath id="clip0_7003_63306">
<rect width="20" height="20" fill="white"/>
</clipPath>
</defs>
</svg>
