<svg width="20" height="20" viewBox="0 0 20 20" fill="none" xmlns="http://www.w3.org/2000/svg">
<path d="M3.33333 5.83203L3.33333 17.4987" stroke="#7D91A6" stroke-width="1.5" stroke-linecap="round" stroke-linejoin="round"/>
<path d="M9.79798 3.25721C7.04363 1.85414 4.87605 2.6762 3.79522 3.516C3.6004 3.66737 3.50299 3.74306 3.41816 3.91639C3.33333 4.08973 3.33333 4.25115 3.33333 4.574V12.2766C4.14141 11.3619 6.56566 9.944 9.79798 11.5905C12.6866 13.062 15.1451 12.452 16.3081 11.8163C16.4694 11.7281 16.5501 11.684 16.6084 11.5857C16.6667 11.4874 16.6667 11.3807 16.6667 11.1674V4.89491C16.6667 4.20448 16.6667 3.85927 16.5022 3.73421C16.3378 3.60915 15.953 3.71584 15.1835 3.9292C13.8667 4.29433 11.9519 4.35443 9.79798 3.25721Z" stroke="#7D91A6" stroke-width="1.5" stroke-linecap="round" stroke-linejoin="round"/>
</svg>
