<svg width="16" height="16" viewBox="0 0 16 16" fill="none" xmlns="http://www.w3.org/2000/svg">
<path d="M2.66699 14.668H13.3337" stroke="#0069FE" stroke-width="1.5" stroke-linecap="round"/>
<path d="M9.25903 2.44065L9.75336 1.94631C10.5724 1.12727 11.9003 1.12727 12.7194 1.94631C13.5384 2.76536 13.5384 4.09329 12.7194 4.91233L12.225 5.40666M9.25903 2.44065C9.25903 2.44065 9.32082 3.49111 10.2477 4.41799C11.1746 5.34487 12.225 5.40666 12.225 5.40666M9.25903 2.44065L4.71437 6.98531C4.40655 7.29313 4.25264 7.44704 4.12027 7.61674C3.96413 7.81693 3.83026 8.03353 3.72104 8.26271C3.62845 8.45699 3.55962 8.66349 3.42196 9.07647L2.83862 10.8265M12.225 5.40666L7.68038 9.95132C7.37256 10.2591 7.21865 10.4131 7.04895 10.5454C6.84876 10.7016 6.63216 10.8354 6.40298 10.9446C6.2087 11.0372 6.0022 11.1061 5.58922 11.2437L3.83922 11.8271M3.83922 11.8271L3.41144 11.9697C3.20821 12.0374 2.98414 11.9845 2.83266 11.833C2.68118 11.6815 2.62829 11.4575 2.69603 11.2542L2.83862 10.8265M3.83922 11.8271L2.83862 10.8265" stroke="#0069FE" stroke-width="1.5"/>
</svg>
