<svg width="20" height="20" viewBox="0 0 20 20" fill="none" xmlns="http://www.w3.org/2000/svg">
<path d="M3.33333 8.33464C3.33333 5.19194 3.33333 3.62059 4.30964 2.64428C5.28596 1.66797 6.8573 1.66797 10 1.66797H11.25C14.3927 1.66797 15.964 1.66797 16.9404 2.64428C17.9167 3.62059 17.9167 5.19194 17.9167 8.33464V11.668C17.9167 14.8107 17.9167 16.382 16.9404 17.3583C15.964 18.3346 14.3927 18.3346 11.25 18.3346H10C6.8573 18.3346 5.28596 18.3346 4.30964 17.3583C3.33333 16.382 3.33333 14.8107 3.33333 11.668V8.33464Z" stroke="#7D91A6" stroke-width="1.5"/>
<path d="M8.16661 9.97838C7.8111 9.35849 7.63944 8.8523 7.53594 8.3392C7.38286 7.58034 7.73318 6.83905 8.31352 6.36605C8.55879 6.16614 8.83996 6.23444 8.985 6.49465L9.31244 7.08209C9.57198 7.54771 9.70175 7.78052 9.67601 8.02735C9.65027 8.27417 9.47526 8.4752 9.12524 8.87725L8.16661 9.97838ZM8.16661 9.97838C8.88619 11.2331 10.0154 12.363 11.2716 13.0834M11.2716 13.0834C11.8915 13.4389 12.3977 13.6106 12.9108 13.7141C13.6697 13.8671 14.4109 13.5168 14.8839 12.9365C15.0839 12.6912 15.0156 12.41 14.7554 12.265L14.1679 11.9376C13.7023 11.678 13.4695 11.5482 13.2227 11.574C12.9758 11.5997 12.7748 11.7747 12.3727 12.1248L11.2716 13.0834Z" stroke="#7D91A6" stroke-width="1.5" stroke-linejoin="round"/>
<path d="M4.16667 5L2.08333 5M4.16667 10L2.08333 10M4.16667 15H2.08333" stroke="#7D91A6" stroke-width="1.5" stroke-linecap="round" stroke-linejoin="round"/>
</svg>
