<svg xmlns="http://www.w3.org/2000/svg" width="22" height="22" viewBox="0 0 22 22" fill="none">
  <path d="M9.5 21H8.5C5.20017 21 3.55025 21 2.52513 19.9749C1.5 18.9497 1.5 17.2998 1.5 14V9C1.5 5.70017 1.5 4.05025 2.52513 3.02513C3.55025 2 5.20017 2 8.5 2H11.5C14.7998 2 16.4497 2 17.4749 3.02513C18.5 4.05025 18.5 5.70017 18.5 9V10" stroke="#1A2229" stroke-width="1.5" stroke-linecap="round" stroke-linejoin="round"/>
  <path d="M13.8477 20.8557L13.6909 20.1223L13.8477 20.8557ZM12.6443 19.6523L13.3777 19.8091L12.6443 19.6523ZM13.5207 17.1117L12.9903 16.5814L13.5207 17.1117ZM16.3883 19.9793L15.858 19.449L16.3883 19.9793ZM20.2963 14.4773L20.9458 14.1023V14.1023L20.2963 14.4773ZM19.6961 16.6715L20.2265 17.2018L19.6961 16.6715ZM20.2963 15.9981L20.9458 16.3731L20.2963 15.9981ZM19.0227 13.2037L19.3977 12.5542V12.5542L19.0227 13.2037ZM16.8285 13.8039L17.3588 14.3342L16.8285 13.8039ZM17.5019 13.2037L17.1269 12.5542V12.5542L17.5019 13.2037ZM19.6961 16.6715L19.1658 16.1412L15.858 19.449L16.3883 19.9793L16.9186 20.5097L20.2265 17.2018L19.6961 16.6715ZM13.5207 17.1117L14.051 17.642L17.3588 14.3342L16.8285 13.8039L16.2982 13.2735L12.9903 16.5814L13.5207 17.1117ZM13.8477 20.8557L13.6909 20.1223C13.5155 20.1598 13.3753 20.1897 13.2548 20.2121C13.1333 20.2347 13.0536 20.2454 12.9996 20.2488C12.9441 20.2524 12.9479 20.2458 12.9825 20.2547C13.0296 20.2669 13.0936 20.2972 13.1482 20.3518L12.6179 20.8821L12.0876 21.4124C12.4113 21.7362 12.8158 21.7636 13.0948 21.7458C13.3603 21.7289 13.6839 21.6577 14.0045 21.5891L13.8477 20.8557ZM12.6443 19.6523L11.9109 19.4955C11.8423 19.8161 11.7711 20.1397 11.7542 20.4052C11.7364 20.6842 11.7638 21.0887 12.0876 21.4124L12.6179 20.8821L13.1482 20.3518C13.2028 20.4064 13.2331 20.4704 13.2453 20.5175C13.2542 20.5521 13.2476 20.5559 13.2512 20.5004C13.2546 20.4464 13.2653 20.3667 13.2879 20.2452C13.3103 20.1247 13.3402 19.9845 13.3777 19.8091L12.6443 19.6523ZM19.6961 13.8039L19.1658 14.3342C19.5333 14.7017 19.6084 14.786 19.6467 14.8523L20.2963 14.4773L20.9458 14.1023C20.7839 13.8218 20.5257 13.5728 20.2265 13.2735L19.6961 13.8039ZM19.6961 16.6715L20.2265 17.2018C20.5257 16.9026 20.7839 16.6535 20.9458 16.3731L20.2963 15.9981L19.6467 15.6231C19.6084 15.6894 19.5333 15.7737 19.1658 16.1412L19.6961 16.6715ZM20.2963 14.4773L19.6467 14.8523C19.7844 15.0908 19.7844 15.3846 19.6467 15.6231L20.2963 15.9981L20.9458 16.3731C21.3514 15.6705 21.3514 14.8049 20.9458 14.1023L20.2963 14.4773ZM19.6961 13.8039L20.2265 13.2735C19.9272 12.9743 19.6782 12.7161 19.3977 12.5542L19.0227 13.2037L18.6477 13.8533C18.714 13.8916 18.7983 13.9667 19.1658 14.3342L19.6961 13.8039ZM16.8285 13.8039L17.3588 14.3342C17.7263 13.9667 17.8106 13.8916 17.8769 13.8533L17.5019 13.2037L17.1269 12.5542C16.8465 12.7161 16.5974 12.9743 16.2982 13.2735L16.8285 13.8039ZM19.0227 13.2037L19.3977 12.5542C18.6951 12.1486 17.8295 12.1486 17.1269 12.5542L17.5019 13.2037L17.8769 13.8533C18.1154 13.7156 18.4092 13.7156 18.6477 13.8533L19.0227 13.2037ZM16.3883 19.9793L15.858 19.449C15.6624 19.6445 15.3952 19.771 15.0155 19.8679C14.8253 19.9165 14.6224 19.954 14.3963 19.9931C14.179 20.0306 13.9303 20.0711 13.6909 20.1223L13.8477 20.8557L14.0045 21.5891C14.2063 21.546 14.4131 21.5124 14.6517 21.4712C14.8814 21.4315 15.1346 21.3856 15.3866 21.3213C15.8914 21.1924 16.4533 20.975 16.9186 20.5097L16.3883 19.9793ZM12.6443 19.6523L13.3777 19.8091C13.4289 19.5697 13.4694 19.321 13.5069 19.1037C13.546 18.8776 13.5835 18.6747 13.6321 18.4845C13.729 18.1048 13.8555 17.8376 14.051 17.642L13.5207 17.1117L12.9903 16.5814C12.525 17.0467 12.3076 17.6086 12.1787 18.1134C12.1144 18.3654 12.0685 18.6186 12.0288 18.8483C11.9876 19.0869 11.954 19.2937 11.9109 19.4955L12.6443 19.6523Z" fill="#1A2229"/>
  <path d="M15 1V3M10 1V3M5 1V3" stroke="#1A2229" stroke-width="1.5" stroke-linecap="round" stroke-linejoin="round"/>
  <path d="M6 14H10M6 9H14" stroke="#1A2229" stroke-width="1.5" stroke-linecap="round"/>
</svg>