<svg width="20" height="20" viewBox="0 0 20 20" fill="none" xmlns="http://www.w3.org/2000/svg">
<path d="M10.4412 1.66797C13.7687 1.66797 15.4325 1.66797 16.4663 2.64428C17.5 3.62059 17.5 5.19194 17.5 8.33464V11.668C17.5 14.8107 17.5 16.382 16.4663 17.3583C15.4325 18.3346 13.7687 18.3346 10.4412 18.3346H9.55882C6.23126 18.3346 4.56748 18.3346 3.53374 17.3583C2.5 16.382 2.5 14.8107 2.5 11.668L2.5 8.33463C2.5 5.19194 2.5 3.62059 3.53374 2.64428C4.56748 1.66797 6.23126 1.66797 9.55882 1.66797L10.4412 1.66797Z" stroke="#7D91A6" stroke-width="1.5" stroke-linecap="round"/>
<path d="M6.66667 5.83594H13.3333" stroke="#7D91A6" stroke-width="1.5" stroke-linecap="round"/>
<path d="M6.66667 10H13.3333" stroke="#7D91A6" stroke-width="1.5" stroke-linecap="round"/>
<path d="M6.66667 14.168L10 14.168" stroke="#7D91A6" stroke-width="1.5" stroke-linecap="round"/>
</svg>
