<svg width="32" height="32" viewBox="0 0 32 32" fill="none" xmlns="http://www.w3.org/2000/svg">
<g clip-path="url(#clip0_4914_126880)">
<rect width="32" height="32" rx="9.6" fill="#005FE7"/>
<path d="M6.52157 23.6121C0.144855 15.4177 4.396 4.96449 7.31866 0.762218L12.1018 -1.60156L28.8407 -0.813636L40 11.0053L37.6087 17.3087L31.232 25.1879C22.9422 30.861 13.4303 28.6023 9.71055 26.7638C7.79754 28.0245 5.19371 27.8144 4.13093 27.5517C6.68161 26.9214 6.78748 24.6627 6.52157 23.6121Z" fill="white"/>
<path d="M25.6168 19.1954C25.0388 19.1954 24.5382 19.0685 24.1152 18.8147C23.6922 18.5609 23.3644 18.2049 23.1318 17.7467C22.9026 17.2884 22.7881 16.7562 22.7881 16.1499C22.7881 15.5401 22.9026 15.006 23.1318 14.5478C23.3644 14.086 23.6922 13.7282 24.1152 13.4744C24.5382 13.2206 25.0388 13.0938 25.6168 13.0938C26.1949 13.0938 26.6955 13.2206 27.1185 13.4744C27.5415 13.7282 27.8693 14.086 28.1019 14.5478C28.3346 15.006 28.4509 15.5401 28.4509 16.1499C28.4509 16.7562 28.3346 17.2884 28.1019 17.7467C27.8693 18.2049 27.5415 18.5609 27.1185 18.8147C26.6955 19.0685 26.1949 19.1954 25.6168 19.1954ZM25.6168 18.0745C25.9376 18.0745 26.202 17.9899 26.41 17.8207C26.6179 17.648 26.773 17.4153 26.8753 17.1228C26.981 16.8302 27.0339 16.5059 27.0339 16.1499C27.0339 15.7868 26.981 15.459 26.8753 15.1664C26.773 14.8738 26.6179 14.643 26.41 14.4738C26.202 14.301 25.9376 14.2147 25.6168 14.2147C25.3031 14.2147 25.0405 14.301 24.829 14.4738C24.6175 14.643 24.4589 14.8738 24.3532 15.1664C24.2509 15.459 24.1998 15.7868 24.1998 16.1499C24.1998 16.5059 24.2509 16.8302 24.3532 17.1228C24.4589 17.4153 24.6175 17.648 24.829 17.8207C25.0405 17.9899 25.3031 18.0745 25.6168 18.0745Z" fill="#0069FE"/>
<path d="M22.0109 11.1992V19.0775H20.6204V11.1992H22.0109Z" fill="#0069FE"/>
<path d="M16.4762 19.2007C16.099 19.2007 15.7606 19.1337 15.461 18.9998C15.1614 18.8623 14.9252 18.6614 14.7525 18.397C14.5798 18.1327 14.4934 17.8066 14.4934 17.4189C14.4934 17.0875 14.5551 16.8126 14.6785 16.594C14.8018 16.3755 14.9693 16.201 15.1808 16.0706C15.3958 15.9401 15.6373 15.8414 15.9051 15.7745C16.173 15.704 16.4497 15.6546 16.7353 15.6264C17.0842 15.5876 17.3662 15.5542 17.5813 15.526C17.7963 15.4978 17.9514 15.4519 18.0465 15.3885C18.1452 15.325 18.1946 15.2263 18.1946 15.0924V15.066C18.1946 14.7804 18.11 14.5584 17.9408 14.3997C17.7716 14.2411 17.5249 14.1618 17.2006 14.1618C16.8586 14.1618 16.5872 14.2358 16.3863 14.3839C16.1889 14.5319 16.055 14.7064 15.9845 14.9073L14.689 14.7223C14.7913 14.3627 14.9605 14.0631 15.1966 13.8234C15.4328 13.5802 15.7201 13.3987 16.0585 13.2788C16.4004 13.1554 16.7776 13.0938 17.19 13.0938C17.472 13.0938 17.754 13.1272 18.036 13.1942C18.318 13.2577 18.577 13.3669 18.8132 13.522C19.0494 13.6771 19.238 13.8851 19.379 14.1459C19.52 14.4068 19.5905 14.7328 19.5905 15.1241V19.0791H18.2528V18.2648H18.2105C18.1259 18.427 18.006 18.5803 17.8509 18.7248C17.6993 18.8658 17.509 18.9804 17.2799 19.0685C17.0543 19.1566 16.7864 19.2007 16.4762 19.2007ZM16.8304 18.1749C17.1124 18.1749 17.3557 18.1203 17.5601 18.011C17.7646 17.8982 17.9232 17.7502 18.036 17.5669C18.1488 17.3801 18.2052 17.1774 18.2052 16.9588V16.2662C18.1593 16.3014 18.0853 16.3349 17.9831 16.3667C17.8809 16.3949 17.7646 16.4213 17.6341 16.446C17.5037 16.4706 17.375 16.4918 17.2481 16.5094C17.1248 16.527 17.0173 16.5411 16.9256 16.5517C16.7176 16.5799 16.5308 16.6275 16.3652 16.6945C16.203 16.7579 16.0743 16.846 15.9792 16.9588C15.884 17.0716 15.8364 17.2179 15.8364 17.3977C15.8364 17.655 15.9298 17.8489 16.1166 17.9793C16.3035 18.1097 16.5414 18.1749 16.8304 18.1749Z" fill="#0069FE"/>
<path d="M8.02091 19.0775V18.1892L12.0605 12.3942H7.99976V11.1992H13.8371V12.0928L9.79747 17.8825H13.8582V19.0775H8.02091Z" fill="#0069FE"/>
</g>
<rect x="0.4" y="0.4" width="31.2" height="31.2" rx="9.2" stroke="#005FE7" stroke-width="0.8"/>
<defs>
<clipPath id="clip0_4914_126880">
<rect width="32" height="32" rx="9.6" fill="white"/>
</clipPath>
</defs>
</svg>
