<svg width="350" height="311" viewBox="0 0 350 311" fill="none" xmlns="http://www.w3.org/2000/svg">
<path opacity="0.3" fill-rule="evenodd" clip-rule="evenodd" d="M113.128 0V198H102.128L102.127 74.8476L101.408 74.1933C98.2563 71.3026 96.2321 69.1327 95.335 67.6834L95.1824 67.423C94.1236 65.523 92.737 61.1494 91.0225 54.3021C90.9424 53.9823 91.1367 53.6581 91.4566 53.578C91.504 53.5661 91.5527 53.5601 91.6016 53.5601C92.051 53.5601 92.4447 53.8611 92.5626 54.2947L92.8041 55.1687C94.6506 61.7407 96.378 65.3556 97.9865 66.0133C99.2453 66.528 100.626 67.219 102.127 68.0864L102.128 0H113.128Z" fill="#22134C"/>
<rect opacity="0.3" x="72.1281" width="11" height="198" fill="#22134C"/>
<path opacity="0.3" fill-rule="evenodd" clip-rule="evenodd" d="M176.128 0L176.13 28.6204C182.158 25.3424 186.331 20.2733 188.65 13.413C188.764 13.0758 189.08 12.8489 189.436 12.8489C189.474 12.8489 189.512 12.8533 189.549 12.8621C189.81 12.9242 189.972 13.1867 189.91 13.4485C189.224 16.3407 187.216 20.5905 183.886 26.198C181.951 29.4571 178.829 31.4249 176.129 32.3743L176.128 198H165.128V0H176.128Z" fill="#22134C"/>
<path fill-rule="evenodd" clip-rule="evenodd" d="M60.9533 216.878C60.9533 216.878 52.8167 200.82 58.2007 191.844C63.5848 182.868 66.7786 178.5 60.9533 176.233C55.128 173.967 50.2413 166.106 58.2007 161.859C66.1601 157.613 62.9719 159.959 59.05 148.589C55.128 137.22 54.2649 119.817 63.5848 118.777C72.9046 117.736 79.3374 130.582 79.3374 143.832C79.3374 157.082 77.7098 157.34 89.6865 160.197C101.663 163.054 97.7185 172.696 89.6865 176.233C81.6545 179.771 82.3661 185.328 89.6865 185.328C97.0069 185.328 100.413 197.903 95.0496 205.816C89.6865 213.729 68.6879 223.158 68.6879 223.158L60.9533 216.878Z" fill="#25144F"/>
<path d="M66.0902 131.294C66.3557 131.218 66.6325 131.372 66.7084 131.637L67.0396 132.814C71.6511 149.472 75.1787 173.525 77.6265 204.982C77.6479 205.257 77.4421 205.498 77.1668 205.519C76.8915 205.541 76.6509 205.335 76.6295 205.06L76.4532 202.829C73.9588 171.785 70.3886 148.143 65.7469 131.912C65.671 131.647 65.8247 131.37 66.0902 131.294Z" fill="white"/>
<path fill-rule="evenodd" clip-rule="evenodd" d="M38.564 201C18.2476 201 1.58872 216.66 2.28882e-05 236.568H77.1281C75.5394 216.66 58.8805 201 38.564 201Z" fill="#E15A71"/>
<path fill-rule="evenodd" clip-rule="evenodd" d="M69.0023 215.805C61.8324 220.516 55.9965 227.437 51.4947 236.567L77.1281 236.568C76.5248 229.008 73.7484 222.061 69.4238 216.351L69.0023 215.805Z" fill="#C82C46"/>
<path d="M16.7849 215.244C16.5844 215.054 16.268 215.063 16.078 215.263C15.9092 215.441 15.8972 215.711 16.0374 215.902L16.0971 215.97L38.2201 236.931C38.4206 237.121 38.7371 237.112 38.927 236.912C39.0958 236.734 39.1078 236.464 38.9676 236.273L38.9079 236.205L16.7849 215.244Z" fill="white"/>
<path d="M3.70241 222.693C3.44561 222.592 3.15513 222.718 3.05362 222.975C2.96338 223.203 3.05282 223.458 3.25417 223.583L3.33479 223.623L31.7329 234.849C31.9897 234.951 32.2801 234.825 32.3817 234.568C32.4719 234.34 32.3825 234.085 32.1811 233.96L32.1005 233.919L3.70241 222.693Z" fill="white"/>
<path d="M47.9122 204.507C47.6777 204.434 47.4304 204.543 47.3211 204.753L47.2869 204.837L39.9389 228.623C39.8574 228.887 40.0052 229.167 40.2691 229.249C40.5036 229.321 40.7509 229.212 40.8602 229.002L40.8944 228.919L48.2424 205.132C48.3239 204.868 48.1761 204.588 47.9122 204.507Z" fill="white"/>
<path d="M63.9322 210.04C63.7556 209.869 63.4859 209.855 63.2934 209.993L63.2252 210.052L40.057 234.036C39.8652 234.235 39.8707 234.552 40.0693 234.743C40.2458 234.914 40.5155 234.929 40.708 234.79L40.7763 234.731L63.9444 210.747C64.1363 210.548 64.1308 210.232 63.9322 210.04Z" fill="white"/>
<path fill-rule="evenodd" clip-rule="evenodd" d="M119.401 194C153.262 194 181.027 220.1 183.675 253.28H55.1281C57.7759 220.1 85.5406 194 119.401 194Z" fill="#E15A71"/>
<path d="M155.929 217.982C156.13 217.792 156.446 217.8 156.636 218.001C156.805 218.179 156.817 218.449 156.677 218.64L156.617 218.708L119.745 253.643C119.545 253.833 119.228 253.824 119.038 253.624C118.87 253.445 118.858 253.176 118.998 252.984L119.058 252.917L155.929 217.982Z" fill="white"/>
<path d="M177.627 230.465C177.883 230.364 178.174 230.49 178.275 230.746C178.366 230.975 178.276 231.23 178.075 231.355L177.994 231.395L130.664 250.105C130.407 250.206 130.117 250.081 130.015 249.824C129.925 249.595 130.015 249.341 130.216 249.215L130.297 249.175L177.627 230.465Z" fill="white"/>
<path d="M103.92 200.163C104.154 200.091 104.401 200.199 104.511 200.41L104.545 200.493L116.791 240.137C116.873 240.401 116.725 240.681 116.461 240.763C116.227 240.835 115.98 240.726 115.87 240.516L115.836 240.433L103.589 200.788C103.508 200.524 103.656 200.245 103.92 200.163Z" fill="white"/>
<path d="M77.3528 209.306C77.5294 209.136 77.7991 209.121 77.9916 209.26L78.0598 209.319L116.673 249.293C116.865 249.491 116.86 249.808 116.661 250C116.485 250.17 116.215 250.185 116.022 250.046L115.954 249.987L77.3406 210.013C77.1487 209.815 77.1542 209.498 77.3528 209.306Z" fill="white"/>
<path opacity="0.3" fill-rule="evenodd" clip-rule="evenodd" d="M266.128 0L266.129 95.1205C268.217 92.9358 269.511 90.8902 270.012 88.9836L270.475 87.1491C271.561 82.7621 273.333 75.3684 274.007 76.4665C274.79 77.741 271.878 88.6395 270.945 92.7721C270.431 95.0486 268.825 98.2284 266.128 102.312L266.128 198H242.128L242.128 63.4369C239.595 61.4297 237.911 59.311 237.077 57.0808L236.664 55.9925L236.221 54.8555C235.383 52.7263 234.396 50.3513 233.26 47.7305C233.233 47.6695 233.22 47.6036 233.22 47.5371C233.22 47.2983 233.392 47.0997 233.619 47.0585L233.706 47.0506H234.448L234.846 47.6557C236.414 50.061 237.683 52.2873 238.654 54.3347C239.394 55.8949 240.551 56.9979 242.127 57.6439L242.128 0H266.128Z" fill="#22134C"/>
<rect opacity="0.3" x="230.128" width="24" height="198" fill="#22134C"/>
<rect opacity="0.3" x="108.128" width="24" height="198" fill="#22134C"/>
<rect opacity="0.3" x="209.128" width="11" height="198" fill="#22134C"/>
<path opacity="0.2" fill-rule="evenodd" clip-rule="evenodd" d="M192.628 307C233.773 307 267.128 300.732 267.128 293C267.128 285.268 233.773 279 192.628 279C151.483 279 118.128 285.268 118.128 293C118.128 300.732 151.483 307 192.628 307Z" fill="#2E144F"/>
<path fill-rule="evenodd" clip-rule="evenodd" d="M304.267 268.249C304.267 268.249 318.158 239.554 349.676 232.879C330.549 263.07 304.267 268.249 304.267 268.249Z" fill="#C82C46"/>
<path d="M344.679 235.832C344.901 235.667 345.214 235.714 345.379 235.935C345.525 236.132 345.505 236.401 345.343 236.575L345.276 236.635L312.331 261.128C312.11 261.293 311.796 261.247 311.632 261.025C311.485 260.828 311.505 260.559 311.667 260.385L311.735 260.325L344.679 235.832Z" fill="white"/>
<path fill-rule="evenodd" clip-rule="evenodd" d="M298.293 266.391C298.293 266.391 302.444 248.583 309.128 230.292C315.812 212 320.557 207.2 325.272 209.384C329.986 211.568 307.485 266.391 307.485 266.391H298.293Z" fill="#25144F"/>
<path fill-rule="evenodd" clip-rule="evenodd" d="M256.564 176C236.248 176 219.589 191.66 218 211.568H295.128C293.539 191.66 276.881 176 256.564 176Z" fill="#E15A71"/>
<path d="M234.785 190.244C234.584 190.054 234.268 190.063 234.078 190.263C233.909 190.441 233.897 190.711 234.037 190.902L234.097 190.97L256.22 211.931C256.421 212.121 256.737 212.112 256.927 211.912C257.096 211.734 257.108 211.464 256.968 211.273L256.908 211.205L234.785 190.244Z" fill="white"/>
<path d="M221.702 197.693C221.446 197.592 221.155 197.718 221.054 197.975C220.963 198.203 221.053 198.458 221.254 198.583L221.335 198.623L249.733 209.849C249.99 209.951 250.28 209.825 250.382 209.568C250.472 209.34 250.383 209.085 250.181 208.96L250.101 208.919L221.702 197.693Z" fill="white"/>
<path d="M265.912 179.507C265.678 179.434 265.43 179.543 265.321 179.753L265.287 179.837L257.939 203.623C257.857 203.887 258.005 204.167 258.269 204.249C258.504 204.321 258.751 204.212 258.86 204.002L258.894 203.919L266.242 180.132C266.324 179.868 266.176 179.588 265.912 179.507Z" fill="white"/>
<path d="M281.932 185.04C281.756 184.869 281.486 184.855 281.293 184.993L281.225 185.052L258.057 209.036C257.865 209.235 257.871 209.552 258.069 209.743C258.246 209.914 258.515 209.929 258.708 209.79L258.776 209.731L281.944 185.747C282.136 185.548 282.131 185.232 281.932 185.04Z" fill="white"/>
<path fill-rule="evenodd" clip-rule="evenodd" d="M157.049 284.423C150.812 286.991 139.374 291.939 137.222 297.286C135.069 302.633 170.691 294.536 170.691 288.52C170.691 282.504 163.287 281.854 157.049 284.423Z" fill="#634EA4"/>
<path fill-rule="evenodd" clip-rule="evenodd" d="M186.7 281.268C180.606 284.159 169.443 289.698 167.573 295.151C165.703 300.603 200.852 290.654 200.537 284.646C200.222 278.637 192.794 278.377 186.7 281.268Z" fill="#634EA4"/>
<path fill-rule="evenodd" clip-rule="evenodd" d="M188.835 45.0985C188.835 45.0985 193.451 43.5691 196.861 46.5687C200.271 49.5684 200.794 57.7356 197.986 60.0852C195.178 62.4348 188.835 45.0985 188.835 45.0985Z" fill="#2E144F"/>
<path fill-rule="evenodd" clip-rule="evenodd" d="M185.462 88.1493C185.462 88.1493 199.054 87.9606 200.767 77.2708C202.48 66.581 199.783 56.0085 193.115 47.7446C186.446 39.4807 176.126 33.9764 169.577 38.1478C163.029 42.3192 185.462 88.1493 185.462 88.1493Z" fill="#65B1FE"/>
<path fill-rule="evenodd" clip-rule="evenodd" d="M156.441 67.8483C156.441 67.8483 147.845 53.39 144.949 43.5625C142.053 33.7349 149.826 27.4 157.378 28.4953C164.929 29.5906 175.744 35.1076 180.087 53.0457C184.43 70.9839 183.808 75.5334 183.808 75.5334L156.441 67.8483Z" fill="#407FCD"/>
<path fill-rule="evenodd" clip-rule="evenodd" d="M144.462 41.3374C147.389 45.4794 151.967 47.9967 160.21 50.0549L161.237 50.3047C169.027 52.1484 175.722 57.2713 181.323 65.6733L179.783 66.6008C176.495 68.5774 173.508 70.3395 170.822 71.8869L156.441 67.8482C150.71 58.2093 146.88 50.1141 144.949 43.5624C144.736 42.8382 144.58 42.1331 144.478 41.4484L144.462 41.3374Z" fill="#2A66AF"/>
<path fill-rule="evenodd" clip-rule="evenodd" d="M231.338 201C231.338 201 254.142 247.954 205.646 242.41C210.231 264.212 211.041 274.637 182.825 279.55C180.908 276.022 180.069 274.809 180.069 274.809C180.069 274.809 175.64 282.459 155.871 282.459C144.219 263.828 123.317 222.211 125.034 203.816C126.751 185.42 182.825 169.952 182.825 169.952L231.338 201Z" fill="#2E144F"/>
<path d="M180.445 204.834C183.448 197.384 194.746 201.173 205.898 213.192L206.236 213.559C212.136 220.008 218.551 224.335 222.434 224.276C226.741 224.211 227.781 218.589 224.329 206.661C224.252 206.395 224.405 206.118 224.67 206.041C224.935 205.964 225.212 206.117 225.289 206.383L225.536 207.253C228.844 219.157 227.606 225.198 222.449 225.276C218.269 225.34 211.817 221.04 205.83 214.594L205.498 214.234C194.661 202.388 183.984 198.728 181.372 205.208C179.6 209.603 185.161 230.767 198.014 268.165C198.104 268.427 197.965 268.711 197.704 268.801C197.442 268.891 197.158 268.752 197.068 268.49L195.543 264.028C183.626 228.972 178.604 209.399 180.445 204.834Z" fill="white"/>
<path fill-rule="evenodd" clip-rule="evenodd" d="M123.048 165.911C123.048 165.911 114.758 149.642 114.758 146.737C114.758 143.832 115.057 133.875 116.98 131.024C118.903 128.173 125.999 131.541 130.573 134.923C135.147 138.305 135.799 147.055 138.263 153.485C140.728 159.914 130.573 167.227 130.573 167.227L123.048 165.911Z" fill="#F2C3B6"/>
<path fill-rule="evenodd" clip-rule="evenodd" d="M164.59 219.318C164.59 219.318 178.088 219.141 183.359 211.415C188.631 203.688 186.773 195.989 180.908 194.872C175.044 193.755 158.777 196.274 158.777 196.274L160.128 214.442L164.59 219.318Z" fill="#F2C3B6"/>
<path fill-rule="evenodd" clip-rule="evenodd" d="M174.461 106.791C174.461 106.791 186.834 109.85 188.835 124.973C199.841 134.167 200.521 142.959 203.154 154.563C210.104 165.032 231.338 201 231.338 201C231.338 201 215.906 206.749 195.184 187.631C187.866 198.916 180.114 201 164.59 201C162.189 212.088 164.59 219.318 164.59 219.318C164.59 219.318 138.665 217.176 125.182 205.589C111.698 194.001 117.126 177.332 125.182 170.193C123.812 167.982 123.048 165.911 123.048 165.911C123.048 165.911 132.528 162.439 138.263 153.485C143.999 144.53 145.478 140.782 150.795 136.497C146.692 138.194 137.658 140.496 137.658 140.496C137.658 140.496 143.14 133.216 145.811 126.052C148.483 118.888 174.461 106.791 174.461 106.791Z" fill="#65B1FE"/>
<path fill-rule="evenodd" clip-rule="evenodd" d="M180.087 164.62C180.087 164.62 175.59 171.345 167.184 169.644C158.777 167.943 149.172 146.737 149.172 146.737C149.172 146.737 148.672 150.181 148.672 153.444C148.672 156.707 149.672 164.053 149.672 164.053C149.672 164.053 155.155 168.603 161.386 171.995C167.617 175.386 173.82 174.039 176.732 171.076C179.643 168.113 180.087 164.62 180.087 164.62Z" fill="#407FCD"/>
<path fill-rule="evenodd" clip-rule="evenodd" d="M128.974 175.385C132.139 181.188 137.049 186.529 143.704 191.408C150.145 196.129 156.872 199.276 163.888 200.848L164.59 201C164.101 203.257 163.762 205.395 163.571 207.412C145.272 201.305 133.74 190.63 128.974 175.385Z" fill="#407FCD"/>
<path fill-rule="evenodd" clip-rule="evenodd" d="M203.154 157.169C206.46 170.846 206.744 183.394 204.006 194.811C201.15 192.815 198.209 190.422 195.184 187.631C199.341 179.266 201.708 172.465 202.287 167.227L202.574 164.557C202.961 160.833 203.154 158.37 203.154 157.169Z" fill="#407FCD"/>
<path d="M146.814 125.767C147.079 125.69 147.357 125.843 147.434 126.108C148.601 130.136 150.477 133.667 152.868 136.717C154.343 138.599 155.923 140.184 157.502 141.48C158.053 141.932 158.564 142.316 159.021 142.632L159.366 142.864C159.46 142.925 159.532 142.97 159.581 142.999C159.666 143.05 159.735 143.125 159.778 143.215L171.053 167.013C171.171 167.263 171.065 167.561 170.815 167.679C170.566 167.797 170.267 167.691 170.149 167.441L158.937 143.777L158.716 143.633L158.453 143.455C157.973 143.123 157.44 142.723 156.867 142.253C155.234 140.912 153.603 139.276 152.081 137.334C149.614 134.186 147.677 130.543 146.473 126.386C146.396 126.121 146.549 125.844 146.814 125.767Z" fill="white"/>
<path d="M180.087 112.013C180.363 112.013 180.587 112.237 180.587 112.513C180.587 112.754 180.574 112.996 180.547 113.24C180.23 116.142 178.175 119.082 174.643 122.48L174.082 123.012C173.701 123.369 173.299 123.737 172.849 124.14L170.651 126.095L170.305 126.412C169.437 127.219 169.006 127.716 169.006 127.836C169.006 128.773 171.355 134.177 175.909 143.615C176.029 143.864 175.925 144.163 175.676 144.283C175.428 144.403 175.129 144.299 175.009 144.05L173.278 140.436C169.732 132.967 168.006 128.861 168.006 127.836C168.006 127.283 168.493 126.71 169.781 125.534L171.838 123.702C172.66 122.97 173.316 122.369 173.95 121.759C177.324 118.514 179.269 115.73 179.553 113.131C179.576 112.923 179.587 112.717 179.587 112.513C179.587 112.237 179.811 112.013 180.087 112.013Z" fill="white"/>
<path d="M188.835 124.473C189.111 124.473 189.335 124.697 189.335 124.973C189.335 130.743 187.04 136.288 182.467 141.594C182.287 141.803 181.971 141.826 181.762 141.646C181.553 141.466 181.53 141.15 181.71 140.941C186.133 135.808 188.335 130.489 188.335 124.973C188.335 124.697 188.559 124.473 188.835 124.473Z" fill="white"/>
<path d="M160.944 136.986C161.074 136.742 161.376 136.649 161.62 136.779C161.864 136.908 161.957 137.211 161.828 137.455C160.971 139.069 160.577 140.338 160.627 141.24C160.643 141.515 160.432 141.751 160.156 141.767C159.88 141.782 159.644 141.571 159.629 141.296C159.566 140.176 160.01 138.747 160.944 136.986Z" fill="white"/>
<path d="M179.996 149.261C180.267 149.21 180.528 149.39 180.579 149.661C183.981 167.973 176.16 177.521 164.387 173.676C157.68 171.486 148.867 164.873 137.908 153.837C137.714 153.641 137.715 153.325 137.911 153.13C138.107 152.936 138.423 152.937 138.618 153.133L139.679 154.194C150.042 164.489 158.393 170.666 164.697 172.726C175.651 176.303 182.874 167.486 179.596 149.844C179.545 149.572 179.724 149.311 179.996 149.261Z" fill="white"/>
<path d="M203.154 154.062C203.431 154.062 203.654 154.286 203.654 154.562C203.654 164.841 202.159 173.312 199.161 179.977C199.048 180.228 198.752 180.341 198.5 180.227C198.248 180.114 198.136 179.818 198.249 179.566C201.183 173.044 202.654 164.709 202.654 154.562C202.654 154.286 202.878 154.062 203.154 154.062Z" fill="white"/>
<path d="M128.7 174.967C128.931 174.816 129.241 174.88 129.392 175.111C138.419 188.886 150.181 197.346 164.697 200.511C164.967 200.57 165.138 200.837 165.079 201.107C165.02 201.376 164.753 201.547 164.484 201.489C149.704 198.265 137.722 189.648 128.556 175.659C128.405 175.428 128.469 175.118 128.7 174.967Z" fill="white"/>
<path d="M149.645 143.341C149.917 143.391 150.096 143.652 150.046 143.923C149.036 149.406 149.036 155.76 150.05 162.985C150.088 163.259 149.897 163.511 149.624 163.55C149.35 163.588 149.098 163.398 149.059 163.124C148.031 155.799 148.031 149.339 149.063 143.742C149.107 143.501 149.318 143.332 149.555 143.333L149.645 143.341Z" fill="white"/>
<path fill-rule="evenodd" clip-rule="evenodd" d="M134.688 85.0874C134.688 85.0874 125.989 80.2376 123.852 69.9901C121.715 59.7426 132.131 50.0238 145.454 57.3794C155.018 53.7605 163.498 53.608 172.793 58.2362C182.089 62.8645 197.969 79.1075 187.553 95.6543C177.138 112.201 134.688 85.0874 134.688 85.0874Z" fill="#22134C"/>
<path fill-rule="evenodd" clip-rule="evenodd" d="M134.688 85.087C134.688 85.087 129.168 111.721 144.648 121.057C160.128 130.393 161.386 137.22 161.386 137.22C161.386 137.22 167.937 126.656 171.199 118.905C174.461 111.154 177.034 108.252 182.637 106.153C188.24 104.054 189.211 97.8818 188.726 93.5748C188.24 89.2678 180.554 83.1485 175.876 91.5438C167.647 87.7761 166.761 78.8774 166.761 78.8774C166.761 78.8774 158.329 87.7438 149.285 87.7438C140.242 87.7438 134.688 85.087 134.688 85.087Z" fill="#F2C3B6"/>
<path fill-rule="evenodd" clip-rule="evenodd" d="M143.748 120.487C152.054 124.125 158.282 124.755 162.43 122.377C160.921 126.618 159.32 129.438 157.629 130.836C154.826 127.845 150.499 124.585 144.648 121.057C144.426 120.923 144.208 120.786 143.992 120.647L143.748 120.487Z" fill="#EEB4A4"/>
<path fill-rule="evenodd" clip-rule="evenodd" d="M180.119 107.262C176.266 109.282 174.032 112.279 171.384 118.467L171.199 118.904C169.024 124.072 165.753 130.177 161.386 137.22C161.282 136.654 161.104 136.075 160.853 135.483C166.784 124.972 170.486 104.9 180.119 107.262Z" fill="#EEB4A4"/>
<path d="M135.995 93.9225C140.829 92.5892 143.887 94.4321 144.936 99.3134C144.99 99.5657 145.043 99.8249 145.097 100.094L145.214 100.705C145.273 101.02 145.333 101.353 145.396 101.719L145.669 103.31C146.904 110.537 148.184 112.545 152.611 111.676C152.882 111.623 153.145 111.799 153.198 112.07C153.252 112.341 153.075 112.604 152.804 112.657C149.941 113.22 147.991 112.466 146.733 110.492C145.852 109.109 145.396 107.51 144.815 104.234L144.212 100.783C144.184 100.636 144.154 100.483 144.115 100.287C144.063 100.024 144.011 99.7702 143.958 99.5235C143.03 95.2054 140.542 93.7057 136.261 94.8865C135.995 94.96 135.719 94.8037 135.646 94.5375C135.573 94.2713 135.729 93.996 135.995 93.9225Z" fill="#5F2616"/>
<path d="M162.43 113.5C162.706 113.5 162.93 113.724 162.93 114C162.93 114.276 162.706 114.5 162.43 114.5C158.016 114.5 154.361 115.69 151.444 118.066C151.23 118.24 150.915 118.208 150.74 117.994C150.566 117.78 150.598 117.465 150.812 117.29C153.916 114.762 157.795 113.5 162.43 113.5Z" fill="#5F2616"/>
<path d="M141.62 101.751C141.883 101.667 142.164 101.813 142.248 102.076C142.332 102.339 142.187 102.62 141.924 102.704C139.533 103.466 137.523 103.466 135.908 102.677C135.66 102.556 135.558 102.256 135.679 102.008C135.8 101.76 136.1 101.657 136.348 101.778C137.704 102.442 139.456 102.442 141.62 101.751Z" fill="#22134C"/>
<path fill-rule="evenodd" clip-rule="evenodd" d="M158.394 99.7713C158.394 99.7713 156.546 99.901 155.895 101.402C155.244 102.903 157.426 102.995 158.952 102.199C158.774 104.9 157.979 105.874 156.62 106.033C155.261 106.192 153.93 104.277 153.93 101.554C153.93 98.8314 155.33 98.2227 156.441 98.2227C157.552 98.2227 158.394 99.7713 158.394 99.7713Z" fill="#22134C"/>
<path d="M158.952 91.7461C159.228 91.7461 159.452 91.97 159.452 92.2461C159.452 92.5222 159.228 92.7461 158.952 92.7461C154.929 92.7461 151.638 94.183 149.043 97.0687C148.859 97.2741 148.543 97.2909 148.337 97.1062C148.132 96.9216 148.115 96.6055 148.3 96.4001C151.086 93.3014 154.648 91.7461 158.952 91.7461Z" fill="#5F2616"/>
<path d="M145.359 56.8066C145.494 56.5653 145.798 56.4787 146.039 56.6131C151.112 59.4389 153.144 64.2145 152.232 69.3888C151.433 73.923 148.422 77.9171 145.077 78.8008C144.81 78.8713 144.536 78.712 144.466 78.445C144.395 78.1781 144.554 77.9045 144.821 77.8339C147.747 77.061 150.511 73.3961 151.247 69.2153C152.088 64.445 150.238 60.0965 145.553 57.4867C145.312 57.3523 145.225 57.0478 145.359 56.8066Z" fill="white"/>
<path d="M184.797 205.333C185.064 205.262 185.338 205.421 185.409 205.688C185.48 205.955 185.321 206.229 185.054 206.3C179.82 207.692 174.978 208.066 170.529 207.418C170.256 207.379 170.066 207.125 170.106 206.851C170.146 206.578 170.4 206.389 170.673 206.429C174.981 207.056 179.688 206.692 184.797 205.333Z" fill="#5F2616"/>
<path fill-rule="evenodd" clip-rule="evenodd" d="M124.628 138.361C124.628 138.361 125.915 136.035 125.915 129.507C125.915 122.979 125.915 122.238 125.915 122.238H121.128L124.628 138.361Z" fill="#C82C46"/>
<path fill-rule="evenodd" clip-rule="evenodd" d="M131.959 122.979C131.959 122.979 136.988 119.187 137.874 115.509C138.761 111.831 137.902 101.956 133.059 96.5892C128.216 91.2228 121.405 85.8564 112.379 91.2228C103.352 96.5892 131.959 122.979 131.959 122.979Z" fill="#C82C46"/>
<path fill-rule="evenodd" clip-rule="evenodd" d="M117.485 121.912C119.77 129.14 120.821 135.435 123.49 138C126.159 140.565 123.49 124.905 123.49 124.905C123.49 124.905 129.14 125.773 131.959 122.98C134.778 120.187 138.398 108.136 129.856 97.6617C121.313 87.1869 108.668 89.0079 106.538 98.6576C104.408 108.307 110.951 117.891 117.485 121.912Z" fill="#E15A71"/>
<path fill-rule="evenodd" clip-rule="evenodd" d="M128.616 119.963C132.86 116.879 132.485 109.127 127.778 102.648C123.071 96.1696 115.815 93.4176 111.57 96.5015C107.325 99.5854 107.7 107.337 112.407 113.816C117.114 120.295 124.371 123.047 128.616 119.963Z" fill="#65B1FE"/>
<path fill-rule="evenodd" clip-rule="evenodd" d="M123.883 98.5421C125.282 99.6594 126.609 101.039 127.778 102.649L127.576 102.375L119.098 119.76C117.687 119.021 116.292 118.017 114.99 116.776L123.883 98.5421ZM120.051 96.2119C120.647 96.4674 121.243 96.7713 121.833 97.1214L113.193 114.836C112.924 114.507 112.662 114.167 112.407 113.817C112.215 113.553 112.031 113.287 111.854 113.019L120.051 96.2119Z" fill="white"/>
<path d="M157.366 222.891C157.591 222.792 157.849 222.873 157.981 223.069L158.024 223.148L180.527 274.608C180.638 274.861 180.522 275.156 180.269 275.266C180.044 275.365 179.786 275.284 179.654 275.088L179.611 275.009L157.108 223.549C156.997 223.296 157.113 223.001 157.366 222.891Z" fill="white"/>
<path d="M201.527 222.859C201.767 222.809 202.003 222.94 202.093 223.159L202.119 223.246L206.135 242.307C206.192 242.577 206.019 242.842 205.749 242.899C205.509 242.95 205.273 242.819 205.183 242.599L205.157 242.513L201.141 223.452C201.084 223.182 201.257 222.916 201.527 222.859Z" fill="white"/>
<path d="M133.444 162.639C133.674 162.486 133.985 162.548 134.138 162.778L134.673 163.572C136.971 166.94 140.11 171.055 144.091 175.917C144.266 176.131 144.235 176.446 144.021 176.621C143.807 176.796 143.492 176.764 143.317 176.551L142.374 175.393C138.51 170.629 135.488 166.609 133.305 163.332C133.152 163.102 133.215 162.792 133.444 162.639Z" fill="white"/>
<path d="M144.201 202.654C144.29 202.393 144.574 202.253 144.836 202.342C151.334 204.556 156.961 206.019 161.714 206.732C161.987 206.773 162.175 207.028 162.134 207.301C162.093 207.574 161.839 207.762 161.565 207.721C156.748 206.998 151.065 205.52 144.513 203.289C144.252 203.2 144.112 202.916 144.201 202.654Z" fill="white"/>
<path d="M180.03 46.4638C186.463 44.7624 193.367 48.4991 195.194 55.4628C196.478 60.3593 195.206 66.4806 191.411 73.831C191.285 74.0764 190.983 74.1726 190.738 74.0459C190.492 73.9193 190.396 73.6177 190.523 73.3723C194.214 66.2213 195.437 60.3346 194.226 55.7165C192.544 49.3021 186.197 45.8671 180.285 47.4305C180.018 47.5011 179.745 47.342 179.674 47.075C179.604 46.808 179.763 46.5344 180.03 46.4638Z" fill="white"/>
<path d="M183.833 207.931C184.055 207.768 184.368 207.816 184.531 208.039C184.695 208.262 184.646 208.575 184.423 208.738C180.663 211.493 175.657 213.374 169.411 214.39C169.139 214.434 168.882 214.249 168.837 213.976C168.793 213.704 168.978 213.447 169.251 213.403C175.351 212.411 180.211 210.584 183.833 207.931Z" fill="#5F2616"/>
<path d="M184.826 201.739C185.096 201.684 185.36 201.859 185.415 202.129C185.471 202.4 185.296 202.664 185.025 202.719C180.96 203.548 175.242 203.745 167.861 203.315C167.585 203.298 167.375 203.062 167.391 202.786C167.407 202.511 167.643 202.3 167.919 202.316L169.269 202.389C175.92 202.716 181.108 202.498 184.826 201.739Z" fill="#5F2616"/>
<path d="M116.16 134.325C116.434 134.291 116.684 134.486 116.718 134.76C117.167 138.377 118.988 141.901 122.199 145.335C122.387 145.537 122.376 145.854 122.175 146.042C121.973 146.231 121.657 146.22 121.468 146.018C118.121 142.438 116.202 138.725 115.726 134.883C115.692 134.609 115.886 134.359 116.16 134.325Z" fill="#5F2616"/>
<path d="M115.57 142.785C115.825 142.681 116.117 142.803 116.222 143.059C117.417 145.983 118.841 148.54 120.492 150.729C120.658 150.95 120.614 151.263 120.394 151.43C120.173 151.596 119.86 151.552 119.694 151.331C117.989 149.071 116.523 146.439 115.296 143.437C115.192 143.182 115.314 142.89 115.57 142.785Z" fill="#5F2616"/>
<path d="M214.475 202.656C214.738 202.572 215.019 202.716 215.104 202.979C218.067 212.187 221.564 218.862 225.58 223.001C225.773 223.199 225.768 223.515 225.57 223.708C225.371 223.9 225.055 223.895 224.863 223.697C220.723 219.431 217.158 212.627 214.152 203.286C214.067 203.023 214.212 202.741 214.475 202.656Z" fill="white"/>
<path fill-rule="evenodd" clip-rule="evenodd" d="M278.277 243C262.024 243 248.697 255.528 247.426 271.454H309.128C307.857 255.528 294.53 243 278.277 243Z" fill="#E15A71"/>
<path d="M260.922 254.323C260.722 254.133 260.405 254.141 260.215 254.342C260.047 254.52 260.035 254.79 260.175 254.981L260.235 255.049L277.933 271.817C278.133 272.007 278.45 271.999 278.64 271.798C278.809 271.62 278.821 271.35 278.68 271.159L278.621 271.091L260.922 254.323Z" fill="white"/>
<path d="M250.424 260.262C250.168 260.16 249.877 260.286 249.776 260.543C249.685 260.771 249.775 261.026 249.976 261.151L250.057 261.192L272.775 270.172C273.032 270.274 273.322 270.148 273.424 269.891C273.514 269.663 273.425 269.408 273.223 269.283L273.143 269.242L250.424 260.262Z" fill="white"/>
<path d="M285.785 245.71C285.55 245.637 285.303 245.746 285.194 245.957L285.16 246.04L279.281 265.069C279.2 265.333 279.348 265.613 279.611 265.695C279.846 265.767 280.093 265.658 280.202 265.448L280.237 265.364L286.115 246.335C286.197 246.071 286.049 245.791 285.785 245.71Z" fill="white"/>
<path d="M298.641 250.16C298.464 249.989 298.195 249.975 298.002 250.113L297.934 250.172L279.399 269.36C279.207 269.558 279.213 269.875 279.412 270.067C279.588 270.237 279.858 270.252 280.05 270.113L280.119 270.054L298.653 250.867C298.845 250.668 298.839 250.352 298.641 250.16Z" fill="white"/>
<path opacity="0.3" fill-rule="evenodd" clip-rule="evenodd" d="M90.5392 293.472C99.9849 291.973 115.966 294.101 112.286 299.05C108.606 303.999 76.4934 301.199 72.628 305.526C68.7626 309.852 55.3633 311.12 38.7993 309.796C22.2352 308.473 8.21178 305.716 24.0879 297.907C39.9639 290.098 62.732 297.907 68.4518 297.907C74.1715 297.907 81.0935 294.971 90.5392 293.472Z" fill="#22134C"/>
<path fill-rule="evenodd" clip-rule="evenodd" d="M231.204 309.622C231.204 309.622 227.052 282 231.204 282C235.356 282 239.684 301.474 239.684 301.474C239.684 301.474 244.04 288.523 248.766 290.718C253.491 292.913 248.766 310 248.766 310L231.204 309.622Z" fill="#2E144F"/>
<path fill-rule="evenodd" clip-rule="evenodd" d="M72.8265 256.703C72.8265 256.703 69.4296 235 72.8265 235C76.2235 235 79.7647 250.301 79.7647 250.301C79.7647 250.301 83.3291 240.125 87.1951 241.85C91.061 243.574 87.1951 257 87.1951 257L72.8265 256.703Z" fill="#2E144F"/>
</svg>
